<svg width="24" height="24" viewBox="0 0 24 24" fill="black" xmlns="http://www.w3.org/2000/svg">
    <path
        d="M12 22.75c5.93 0 10.75-4.82 10.75-10.75S17.93 1.25 12 1.25 1.25 6.07 1.25 12 6.07 22.75 12 22.75m0-20c5.1 0 9.25 4.15 9.25 9.25S17.1 21.25 12 21.25 2.75 17.1 2.75 12 6.9 2.75 12 2.75"
        fill="inherit" />
    <path
        d="M12 22.75c5.93 0 10.75-4.82 10.75-10.75S17.93 1.25 12 1.25 1.25 6.07 1.25 12 6.07 22.75 12 22.75m0-20c5.1 0 9.25 4.15 9.25 9.25S17.1 21.25 12 21.25 2.75 17.1 2.75 12 6.9 2.75 12 2.75"
        fill="inherit" fill-opacity=".2" />
    <path
        d="M13.26 16.28c.19 0 .38-.07.53-.22.29-.29.29-.77 0-1.06l-3-3 3-3c.29-.29.29-.77 0-1.06a.754.754 0 0 0-1.06 0L9.2 11.47c-.29.29-.29.77 0 1.06l3.53 3.53c.15.15.34.22.53.22"
        fill="inherit" />
    <path
        d="M13.26 16.28c.19 0 .38-.07.53-.22.29-.29.29-.77 0-1.06l-3-3 3-3c.29-.29.29-.77 0-1.06a.754.754 0 0 0-1.06 0L9.2 11.47c-.29.29-.29.77 0 1.06l3.53 3.53c.15.15.34.22.53.22"
        fill="inherit" fill-opacity=".2" />
</svg>
