<svg width="20" height="20" viewBox="0 0 20 20" fill="none" xmlns="http://www.w3.org/2000/svg">
<path d="M12.5 18.9584H7.50002C2.97502 18.9584 1.04169 17.0251 1.04169 12.5001V7.50008C1.04169 2.97508 2.97502 1.04175 7.50002 1.04175H12.5C17.025 1.04175 18.9584 2.97508 18.9584 7.50008V12.5001C18.9584 17.0251 17.025 18.9584 12.5 18.9584ZM7.50002 2.29175C3.65835 2.29175 2.29169 3.65841 2.29169 7.50008V12.5001C2.29169 16.3417 3.65835 17.7084 7.50002 17.7084H12.5C16.3417 17.7084 17.7084 16.3417 17.7084 12.5001V7.50008C17.7084 3.65841 16.3417 2.29175 12.5 2.29175H7.50002Z" fill="#025864"/>
<path d="M10.0001 10.8999C9.89174 10.8999 9.78341 10.8749 9.68341 10.8166L5.26675 8.26658C4.96675 8.09158 4.86673 7.70825 5.04173 7.41658C5.21673 7.11658 5.60008 7.01658 5.89175 7.19158L9.99174 9.56658L14.0667 7.20825C14.3667 7.03325 14.7501 7.14158 14.9167 7.43325C15.0834 7.72491 14.9834 8.11658 14.6917 8.28325L10.3084 10.8166C10.2167 10.8666 10.1084 10.8999 10.0001 10.8999Z" fill="#025864"/>
<path d="M10 15.4332C9.65833 15.4332 9.375 15.1499 9.375 14.8082V10.2749C9.375 9.93324 9.65833 9.6499 10 9.6499C10.3417 9.6499 10.625 9.93324 10.625 10.2749V14.8082C10.625 15.1499 10.3417 15.4332 10 15.4332Z" fill="#025864"/>
<path d="M10.0002 15.6249C9.51687 15.6249 9.04188 15.5166 8.65855 15.3083L5.99187 13.8249C5.19187 13.3832 4.5752 12.3249 4.5752 11.4083V8.58325C4.5752 7.67492 5.20021 6.61658 5.99187 6.16658L8.65855 4.68325C9.42522 4.25825 10.5752 4.25825 11.3419 4.68325L14.0085 6.16658C14.8085 6.60825 15.4252 7.66659 15.4252 8.58325V11.4083C15.4252 12.3166 14.8002 13.3749 14.0085 13.8249L11.3419 15.3083C10.9585 15.5249 10.4835 15.6249 10.0002 15.6249ZM10.0002 5.62492C9.7252 5.62492 9.45853 5.67492 9.26687 5.78325L6.60021 7.26658C6.19188 7.49158 5.8252 8.12492 5.8252 8.58325V11.4083C5.8252 11.8749 6.19188 12.4999 6.60021 12.7249L9.26687 14.2083C9.6502 14.4249 10.3502 14.4249 10.7335 14.2083L13.4002 12.7249C13.8085 12.4999 14.1752 11.8666 14.1752 11.4083V8.58325C14.1752 8.11659 13.8085 7.49158 13.4002 7.26658L10.7335 5.78325C10.5419 5.67492 10.2752 5.62492 10.0002 5.62492Z" fill="#025864"/>
</svg>
