<svg width="21" height="20" viewBox="0 0 21 20" fill="none" xmlns="http://www.w3.org/2000/svg">
<g id="vuesax/bold/card">
<g id="card">
<path id="Vector" d="M18.6667 6.29159C18.6667 6.84159 18.2167 7.29158 17.6667 7.29158H3.00006C2.45006 7.29158 2.00006 6.84159 2.00006 6.29159V6.28325C2.00006 4.37492 3.54173 2.83325 5.45006 2.83325H15.2084C17.1167 2.83325 18.6667 4.38325 18.6667 6.29159Z" fill="#025864"/>
<path id="Vector_2" d="M2.00006 9.54175V13.7167C2.00006 15.6251 3.54173 17.1667 5.45006 17.1667H15.2084C17.1167 17.1667 18.6667 15.6167 18.6667 13.7084V9.54175C18.6667 8.99175 18.2167 8.54175 17.6667 8.54175H3.00006C2.45006 8.54175 2.00006 8.99175 2.00006 9.54175ZM7.00006 14.3751H5.33339C4.99173 14.3751 4.70839 14.0917 4.70839 13.7501C4.70839 13.4084 4.99173 13.1251 5.33339 13.1251H7.00006C7.34173 13.1251 7.62506 13.4084 7.62506 13.7501C7.62506 14.0917 7.34173 14.3751 7.00006 14.3751ZM12.4167 14.3751H9.08339C8.74173 14.3751 8.45839 14.0917 8.45839 13.7501C8.45839 13.4084 8.74173 13.1251 9.08339 13.1251H12.4167C12.7584 13.1251 13.0417 13.4084 13.0417 13.7501C13.0417 14.0917 12.7584 14.3751 12.4167 14.3751Z" fill="#025864"/>
</g>
</g>
</svg>
