<svg width="20" height="20" viewBox="0 0 20 20" fill="none" xmlns="http://www.w3.org/2000/svg">
<path d="M17.1834 10.8916C16.8667 10.8916 16.6 10.65 16.5584 10.3333C16.3584 8.44996 15.3417 6.74163 13.775 5.6583C13.4917 5.4583 13.425 5.07496 13.6167 4.79163C13.8167 4.5083 14.2084 4.44163 14.4834 4.6333C16.35 5.92496 17.55 7.9583 17.7917 10.2C17.825 10.5416 17.5834 10.85 17.2334 10.8916C17.225 10.8916 17.2 10.8916 17.1834 10.8916Z" fill="#025864"/>
<path d="M2.90832 10.9332C2.88332 10.9332 2.86665 10.9332 2.84165 10.9332C2.49998 10.8916 2.24998 10.5832 2.28332 10.2416C2.50832 7.99989 3.69998 5.97489 5.54165 4.66656C5.82498 4.46656 6.21665 4.53322 6.41665 4.81656C6.61665 5.09989 6.54998 5.49156 6.26665 5.69156C4.71665 6.78322 3.71665 8.49156 3.52498 10.3749C3.49998 10.6916 3.22498 10.9332 2.90832 10.9332Z" fill="#025864"/>
<path d="M10.05 18.8417C8.81666 18.8417 7.64166 18.5584 6.54166 18.0084C6.23332 17.8501 6.10832 17.4751 6.26666 17.1667C6.42499 16.8584 6.79999 16.7334 7.10832 16.8917C8.90832 17.8001 11.075 17.8167 12.8917 16.9417C13.2 16.7917 13.575 16.9251 13.725 17.2334C13.875 17.5417 13.7417 17.9167 13.4333 18.0667C12.3667 18.5834 11.2333 18.8417 10.05 18.8417Z" fill="#025864"/>
<path d="M10.05 7.03324C8.425 7.03324 7.10834 5.71657 7.10834 4.09157C7.10834 2.46657 8.425 1.1499 10.05 1.1499C11.675 1.1499 12.9917 2.46657 12.9917 4.09157C12.9917 5.71657 11.6667 7.03324 10.05 7.03324ZM10.05 2.40824C9.11667 2.40824 8.35834 3.16657 8.35834 4.0999C8.35834 5.03324 9.11667 5.79157 10.05 5.79157C10.9833 5.79157 11.7417 5.03324 11.7417 4.0999C11.7417 3.16657 10.975 2.40824 10.05 2.40824Z" fill="#025864"/>
<path d="M4.02498 17.2249C2.39998 17.2249 1.08331 15.9082 1.08331 14.2832C1.08331 12.6666 2.39998 11.3416 4.02498 11.3416C5.64998 11.3416 6.96665 12.6582 6.96665 14.2832C6.96665 15.8999 5.64998 17.2249 4.02498 17.2249ZM4.02498 12.5916C3.09165 12.5916 2.33331 13.3499 2.33331 14.2832C2.33331 15.2166 3.09165 15.9749 4.02498 15.9749C4.95831 15.9749 5.71665 15.2166 5.71665 14.2832C5.71665 13.3499 4.95831 12.5916 4.02498 12.5916Z" fill="#025864"/>
<path d="M15.975 17.2249C14.35 17.2249 13.0333 15.9082 13.0333 14.2832C13.0333 12.6666 14.35 11.3416 15.975 11.3416C17.6 11.3416 18.9167 12.6582 18.9167 14.2832C18.9083 15.8999 17.5917 17.2249 15.975 17.2249ZM15.975 12.5916C15.0417 12.5916 14.2833 13.3499 14.2833 14.2832C14.2833 15.2166 15.0417 15.9749 15.975 15.9749C16.9083 15.9749 17.6667 15.2166 17.6667 14.2832C17.6583 13.3499 16.9083 12.5916 15.975 12.5916Z" fill="#025864"/>
</svg>
