<svg width="20" height="21" viewBox="0 0 20 21" fill="none" xmlns="http://www.w3.org/2000/svg">
<g id="Frame">
<g id="Vector">
<path d="M5.625 10.5C5.625 10.6658 5.55915 10.8247 5.44194 10.9419C5.32473 11.0592 5.16576 11.125 5 11.125C4.83424 11.125 4.67527 11.0592 4.55806 10.9419C4.44085 10.8247 4.375 10.6658 4.375 10.5C4.375 10.3342 4.44085 10.1753 4.55806 10.0581C4.67527 9.94085 4.83424 9.875 5 9.875C5.16576 9.875 5.32473 9.94085 5.44194 10.0581C5.55915 10.1753 5.625 10.3342 5.625 10.5ZM10.625 10.5C10.625 10.6658 10.5592 10.8247 10.4419 10.9419C10.3247 11.0592 10.1658 11.125 10 11.125C9.83424 11.125 9.67527 11.0592 9.55806 10.9419C9.44085 10.8247 9.375 10.6658 9.375 10.5C9.375 10.3342 9.44085 10.1753 9.55806 10.0581C9.67527 9.94085 9.83424 9.875 10 9.875C10.1658 9.875 10.3247 9.94085 10.4419 10.0581C10.5592 10.1753 10.625 10.3342 10.625 10.5ZM15.625 10.5C15.625 10.6658 15.5592 10.8247 15.4419 10.9419C15.3247 11.0592 15.1658 11.125 15 11.125C14.8342 11.125 14.6753 11.0592 14.5581 10.9419C14.4408 10.8247 14.375 10.6658 14.375 10.5C14.375 10.3342 14.4408 10.1753 14.5581 10.0581C14.6753 9.94085 14.8342 9.875 15 9.875C15.1658 9.875 15.3247 9.94085 15.4419 10.0581C15.5592 10.1753 15.625 10.3342 15.625 10.5Z" stroke="#1B1B1B" stroke-width="1.5" stroke-linecap="round" stroke-linejoin="round"/>
<path d="M5.625 10.5C5.625 10.6658 5.55915 10.8247 5.44194 10.9419C5.32473 11.0592 5.16576 11.125 5 11.125C4.83424 11.125 4.67527 11.0592 4.55806 10.9419C4.44085 10.8247 4.375 10.6658 4.375 10.5C4.375 10.3342 4.44085 10.1753 4.55806 10.0581C4.67527 9.94085 4.83424 9.875 5 9.875C5.16576 9.875 5.32473 9.94085 5.44194 10.0581C5.55915 10.1753 5.625 10.3342 5.625 10.5ZM10.625 10.5C10.625 10.6658 10.5592 10.8247 10.4419 10.9419C10.3247 11.0592 10.1658 11.125 10 11.125C9.83424 11.125 9.67527 11.0592 9.55806 10.9419C9.44085 10.8247 9.375 10.6658 9.375 10.5C9.375 10.3342 9.44085 10.1753 9.55806 10.0581C9.67527 9.94085 9.83424 9.875 10 9.875C10.1658 9.875 10.3247 9.94085 10.4419 10.0581C10.5592 10.1753 10.625 10.3342 10.625 10.5ZM15.625 10.5C15.625 10.6658 15.5592 10.8247 15.4419 10.9419C15.3247 11.0592 15.1658 11.125 15 11.125C14.8342 11.125 14.6753 11.0592 14.5581 10.9419C14.4408 10.8247 14.375 10.6658 14.375 10.5C14.375 10.3342 14.4408 10.1753 14.5581 10.0581C14.6753 9.94085 14.8342 9.875 15 9.875C15.1658 9.875 15.3247 9.94085 15.4419 10.0581C15.5592 10.1753 15.625 10.3342 15.625 10.5Z" stroke="black" stroke-opacity="0.2" stroke-width="1.5" stroke-linecap="round" stroke-linejoin="round"/>
</g>
</g>
</svg>
