<?xml version="1.0" standalone="no"?>
<!DOCTYPE svg PUBLIC "-//W3C//DTD SVG 20010904//EN"
 "http://www.w3.org/TR/2001/REC-SVG-20010904/DTD/svg10.dtd">
<svg version="1.0" xmlns="http://www.w3.org/2000/svg"
 width="178.000000pt" height="66.000000pt" viewBox="0 0 178.000000 66.000000"
 preserveAspectRatio="xMidYMid meet">

<g transform="translate(0.000000,66.000000) scale(0.100000,-0.100000)"
fill="#000000" stroke="none">
<path d="M1084 488 c-4 -7 -3 -8 5 -4 8 6 10 0 7 -21 l-6 -28 12 28 c15 34 32
35 24 1 -5 -17 -3 -25 4 -22 6 2 11 7 11 11 -1 4 -1 16 -1 27 0 15 -7 20 -24
20 -14 0 -28 -5 -32 -12z"/>
<path d="M910 473 c0 -4 14 -26 30 -47 l30 -39 -32 -36 -32 -36 63 -3 c73 -3
91 1 91 23 0 15 -1 15 -16 1 -16 -17 -114 -23 -114 -8 0 5 11 19 25 32 31 29
31 33 -1 76 l-26 34 46 0 c26 0 57 -5 68 -11 16 -9 19 -8 16 3 -5 14 -148 25
-148 11z"/>
<path d="M1364 454 c28 -27 13 -78 -27 -94 -21 -8 -20 -9 6 -9 16 -1 26 2 23
7 -2 4 2 16 10 26 12 17 14 17 20 3 3 -9 3 -21 -1 -27 -4 -6 5 -10 22 -10 15
0 23 4 18 8 -6 4 -16 19 -22 34 -11 25 -9 29 18 52 28 24 29 26 9 26 -12 0
-19 -4 -16 -9 3 -5 -1 -14 -8 -20 -16 -13 -32 2 -21 19 4 6 -5 10 -20 10 -24
0 -25 -1 -11 -16z"/>
<path d="M1464 378 c-4 -7 -3 -8 5 -4 9 6 10 0 5 -19 -5 -20 -3 -26 5 -24 7 3
12 8 12 12 -1 4 -1 16 -1 27 0 22 -15 27 -26 8z"/>
<path d="M1526 384 c15 -6 6 -45 -14 -61 -14 -12 -14 -13 0 -13 20 0 24 5 33
48 6 27 4 32 -12 31 -10 0 -13 -3 -7 -5z"/>
<path d="M201 295 c-23 -41 -52 -82 -64 -90 -21 -15 -21 -15 9 -15 25 0 30 4
30 23 -1 18 5 23 32 25 26 3 32 0 32 -17 0 -10 -6 -22 -12 -24 -7 -3 5 -6 27
-6 22 0 35 3 28 7 -7 4 -15 44 -19 90 -4 45 -10 82 -13 82 -4 0 -26 -34 -50
-75z m36 -42 c-3 -2 -15 -3 -26 -1 l-21 3 22 35 23 35 3 -33 c2 -19 1 -36 -1
-39z"/>
<path d="M318 361 c11 -6 31 -101 32 -148 0 -29 22 -9 61 57 23 39 51 77 63
85 20 15 19 15 -11 15 -25 0 -31 -4 -27 -15 4 -8 -9 -38 -27 -67 l-34 -52 -6
29 c-11 51 -10 93 4 98 6 3 -6 6 -28 6 -25 0 -35 -2 -27 -8z"/>
<path d="M1238 335 c-3 -24 0 -35 9 -35 8 0 13 13 13 35 0 19 -4 35 -9 35 -5
0 -11 -16 -13 -35z"/>
<path d="M1084 348 c-4 -7 -3 -8 5 -4 9 6 10 0 5 -19 -5 -20 -3 -26 5 -24 7 3
12 8 12 12 -1 4 -1 16 -1 27 0 22 -15 27 -26 8z"/>
<path d="M648 273 c23 -2 61 -2 85 0 23 2 4 4 -43 4 -47 0 -66 -2 -42 -4z"/>
<path d="M490 259 c0 -5 5 -7 10 -4 6 3 10 8 10 11 0 2 -4 4 -10 4 -5 0 -10
-5 -10 -11z"/>
<path d="M1047 253 c94 -2 252 -2 350 0 98 1 21 2 -172 2 -192 1 -273 -1 -178
-2z"/>
<path d="M465 230 c-4 -6 1 -7 11 -3 13 5 15 2 11 -13 -3 -10 -9 -31 -12 -46
-5 -17 -12 -25 -21 -21 -8 3 -14 0 -14 -6 0 -15 25 -14 38 2 6 7 14 32 18 55
5 34 4 42 -9 42 -9 0 -19 -4 -22 -10z"/>
<path d="M648 223 c23 -2 61 -2 85 0 23 2 4 4 -43 4 -47 0 -66 -2 -42 -4z"/>
<path d="M1187 194 c-4 -4 -7 -12 -7 -18 0 -6 5 -4 11 4 8 11 9 5 4 -25 -4
-27 -3 -37 4 -30 14 14 18 67 5 72 -5 2 -13 0 -17 -3z"/>
<path d="M1238 193 c9 -3 11 -16 6 -39 -7 -37 5 -45 27 -16 13 15 12 16 -3 4
-15 -12 -16 -10 -11 22 5 31 3 36 -13 35 -11 0 -14 -3 -6 -6z"/>
</g>
</svg>
