<?xml version="1.0" standalone="no"?>
<!DOCTYPE svg PUBLIC "-//W3C//DTD SVG 20010904//EN"
 "http://www.w3.org/TR/2001/REC-SVG-20010904/DTD/svg10.dtd">
<svg version="1.0" xmlns="http://www.w3.org/2000/svg"
 width="291.000000pt" height="185.000000pt" viewBox="0 0 291.000000 185.000000"
 preserveAspectRatio="xMidYMid meet">

<g transform="translate(0.000000,185.000000) scale(0.100000,-0.100000)"
fill="#000000" stroke="none">
<path d="M1584 1643 c-19 -44 -13 -99 13 -122 13 -13 15 -13 6 -1 -20 28 -24
76 -10 119 18 51 11 54 -9 4z"/>
<path d="M2527 1638 c12 -36 12 -47 0 -85 -12 -35 -12 -41 -1 -32 29 24 25
135 -6 154 -4 2 -1 -14 7 -37z"/>
<path d="M1642 1658 c-7 -7 -12 -29 -12 -49 0 -73 62 -78 68 -5 5 54 -26 84
-56 54z m38 -48 c0 -38 -4 -50 -15 -50 -11 0 -15 12 -15 50 0 38 4 50 15 50
11 0 15 -12 15 -50z"/>
<path d="M1793 1658 c-26 -33 -20 -126 8 -144 8 -4 7 0 0 14 -15 28 -14 115 1
130 7 7 9 12 6 12 -3 0 -10 -6 -15 -12z"/>
<path d="M1874 1654 c19 -19 21 -45 4 -64 -11 -12 -10 -12 3 -2 14 10 18 10
23 -4 3 -9 4 -20 0 -25 -3 -5 7 -9 23 -9 16 0 23 3 16 8 -6 4 -16 19 -22 34
-9 24 -7 30 20 52 26 22 28 26 11 26 -11 0 -22 -9 -25 -20 -3 -11 -11 -20 -17
-20 -7 0 -10 8 -7 20 4 16 0 20 -20 20 -22 0 -23 -1 -9 -16z"/>
<path d="M2276 1637 c-13 -24 -13 -27 -2 -13 16 19 16 19 16 -2 0 -14 -6 -22
-16 -22 -9 0 -27 -11 -40 -25 -22 -24 -22 -25 -4 -25 11 0 19 3 19 8 -4 21 3
32 20 32 25 0 38 -20 20 -31 -10 -6 -5 -8 16 -8 17 0 24 3 18 6 -8 3 -13 24
-13 53 0 60 -11 69 -34 27z"/>
<path d="M2364 1611 c10 -60 17 -66 36 -31 9 16 8 18 -6 13 -14 -5 -16 0 -12
35 3 33 0 42 -12 42 -14 0 -15 -8 -6 -59z"/>
<path d="M2432 1663 c1 -5 -3 -19 -10 -33 -12 -24 -12 -24 3 -5 8 11 23 26 32
33 15 11 15 12 -5 12 -12 0 -21 -3 -20 -7z"/>
<path d="M2588 1653 c15 -27 15 -98 1 -125 -7 -14 -8 -18 0 -14 16 10 31 75
24 107 -3 16 -12 34 -21 41 -13 11 -14 10 -4 -9z"/>
<path d="M1227 1624 c8 -4 9 -15 2 -37 -11 -39 -11 -37 -1 -37 4 0 12 14 17
32 6 17 16 34 24 36 11 4 12 -4 7 -34 -5 -26 -4 -36 3 -29 5 6 11 24 13 40 3
29 1 30 -37 32 -22 0 -35 -1 -28 -3z"/>
<path d="M1318 1623 c9 -3 11 -16 6 -39 -7 -37 5 -45 27 -16 13 15 12 16 -3 4
-15 -12 -16 -10 -11 22 5 31 3 36 -13 35 -11 0 -14 -3 -6 -6z"/>
<path d="M1380 1616 c-6 -8 -10 -25 -8 -38 2 -18 10 -23 33 -25 27 -1 30 2 30
30 0 45 -30 63 -55 33z m40 -10 c0 -25 -12 -46 -26 -46 -17 0 -18 14 -4 41 12
22 30 25 30 5z"/>
<path d="M1475 1619 c-3 -5 1 -6 9 -3 17 7 19 1 10 -33 -4 -13 -11 -20 -20
-16 -8 3 -14 0 -14 -6 0 -15 73 -9 76 7 1 7 0 8 -3 2 -2 -5 -11 -10 -18 -10
-10 0 -11 7 -6 28 5 15 13 26 20 25 6 -2 11 1 11 5 0 12 -58 13 -65 1z"/>
<path d="M1974 1578 c-4 -7 -3 -8 5 -4 9 6 10 0 5 -19 -5 -20 -3 -26 5 -24 7
3 12 8 12 12 -1 4 -1 16 -1 27 0 22 -15 27 -26 8z"/>
<path d="M2036 1584 c15 -6 6 -45 -14 -61 -14 -12 -14 -13 0 -13 20 0 24 5 33
48 6 27 4 32 -12 31 -10 0 -13 -3 -7 -5z"/>
<path d="M2454 1578 c-5 -7 -3 -8 6 -3 10 6 11 1 6 -21 -4 -16 -13 -32 -19
-36 -9 -6 -9 -8 0 -8 15 0 33 32 33 59 0 23 -15 28 -26 9z"/>
<path d="M179 1561 c13 -8 13 -20 -3 -85 -12 -52 -23 -76 -34 -79 -9 -3 3 -5
28 -5 25 0 39 2 33 5 -30 11 -10 73 23 73 37 0 74 21 80 47 10 39 -11 53 -80
53 -41 0 -56 -3 -47 -9z m99 -29 c2 -13 -2 -30 -8 -38 -15 -18 -71 -19 -66 -1
3 6 7 25 11 40 5 24 10 28 33 25 19 -2 28 -9 30 -26z"/>
<path d="M367 1562 c15 -10 -13 -142 -35 -159 -24 -19 81 -17 117 2 57 29 77
130 31 155 -21 11 -131 14 -113 2z m103 -17 c20 -25 6 -96 -25 -122 -25 -22
-75 -32 -75 -15 0 4 7 40 17 80 16 67 18 72 44 72 14 0 32 -7 39 -15z"/>
<path d="M604 1503 c-20 -37 -48 -78 -60 -90 l-23 -23 32 1 c18 0 26 3 20 6
-9 3 -10 10 -3 24 15 27 70 27 70 0 0 -11 -6 -22 -12 -24 -7 -3 5 -6 27 -6 25
0 35 2 27 8 -9 5 -16 38 -19 90 -3 44 -9 81 -14 81 -4 0 -24 -30 -45 -67z m36
-24 c0 -24 -4 -29 -25 -29 l-25 0 17 35 c19 39 33 37 33 -6z"/>
<path d="M1720 1566 c0 -2 7 -9 15 -16 12 -10 15 -10 15 4 0 9 -7 16 -15 16
-8 0 -15 -2 -15 -4z"/>
<path d="M1845 1560 c-19 -8 -19 -9 3 -9 12 -1 22 4 22 9 0 6 -1 10 -2 9 -2 0
-12 -4 -23 -9z"/>
<path d="M963 1473 c26 -2 67 -2 90 0 23 2 2 3 -48 3 -49 0 -68 -1 -42 -3z"/>
<path d="M730 1459 c0 -5 5 -7 10 -4 6 3 10 8 10 11 0 2 -4 4 -10 4 -5 0 -10
-5 -10 -11z"/>
<path d="M1553 1453 c203 -2 531 -2 730 0 199 1 34 2 -368 2 -401 0 -564 -1
-362 -2z"/>
<path d="M707 1434 c-4 -4 -7 -12 -7 -18 0 -6 5 -4 11 4 7 11 8 5 3 -22 -3
-21 -2 -38 3 -38 5 0 9 8 10 18 1 9 3 26 5 36 3 19 -13 32 -25 20z"/>
<path d="M779 1423 c-13 -17 -13 -17 5 -3 18 14 19 13 12 -25 -10 -51 -13 -55
-34 -48 -13 5 -15 3 -5 -7 19 -21 39 -5 51 41 15 58 0 79 -29 42z"/>
<path d="M963 1423 c26 -2 67 -2 90 0 23 2 2 3 -48 3 -49 0 -68 -1 -42 -3z"/>
<path d="M1846 1367 c-13 -24 -13 -27 -2 -13 16 19 16 19 16 -2 0 -14 -6 -22
-16 -22 -9 0 -27 -11 -40 -25 -22 -24 -22 -25 -4 -25 11 0 19 3 19 8 -4 21 3
32 20 32 25 0 38 -20 20 -31 -10 -6 -5 -8 16 -8 17 0 24 3 18 6 -8 3 -13 24
-13 53 0 60 -11 69 -34 27z"/>
<path d="M1934 1341 c10 -60 17 -66 36 -31 9 16 8 18 -6 13 -14 -5 -16 0 -12
35 3 33 0 42 -12 42 -14 0 -15 -8 -6 -59z"/>
<path d="M2002 1393 c1 -5 -3 -19 -10 -33 -12 -24 -12 -24 3 -5 8 11 23 26 32
33 15 11 15 12 -5 12 -12 0 -21 -3 -20 -7z"/>
<path d="M2024 1308 c-5 -7 -3 -8 6 -3 10 6 11 1 6 -21 -4 -16 -13 -32 -19
-36 -9 -6 -9 -8 0 -8 15 0 33 32 33 59 0 23 -15 28 -26 9z"/>
<path d="M1826 568 c-21 -29 -20 -107 1 -133 l16 -20 -8 20 c-17 42 -17 105
-1 130 20 31 13 33 -8 3z"/>
<path d="M2554 565 c18 -35 20 -72 6 -112 -10 -27 -9 -27 6 -8 20 26 14 110
-10 133 -16 16 -16 15 -2 -13z"/>
<path d="M2627 548 c12 -36 12 -47 0 -85 -12 -35 -12 -41 -1 -32 29 24 25 135
-6 154 -4 2 -1 -14 7 -37z"/>
<path d="M1623 568 c-26 -33 -20 -126 8 -144 8 -4 7 0 0 14 -15 28 -14 115 1
130 7 7 9 12 6 12 -3 0 -10 -6 -15 -12z"/>
<path d="M1670 561 c-25 -48 -1 -109 38 -97 19 6 22 15 22 56 0 34 -4 50 -16
54 -25 10 -33 7 -44 -13z m45 -41 c0 -35 -4 -45 -17 -48 -15 -3 -18 4 -18 48
0 44 3 51 18 48 13 -3 17 -13 17 -48z"/>
<path d="M1939 568 c-1 -7 0 -23 1 -35 1 -15 -5 -23 -22 -26 -20 -4 -20 -4 5
-6 28 -1 38 -25 15 -34 -7 -3 0 -6 17 -6 22 -1 26 2 17 11 -7 7 -12 34 -12 60
0 26 -4 48 -10 48 -5 0 -10 -6 -11 -12z"/>
<path d="M2008 568 c7 -7 12 -28 12 -47 0 -52 14 -70 30 -40 7 13 20 34 28 47
8 12 12 22 9 22 -3 0 -14 -14 -25 -31 l-19 -31 -6 38 c-4 25 -2 41 6 46 7 5 0
8 -17 8 -23 0 -27 -3 -18 -12z"/>
<path d="M2085 570 c3 -5 12 -7 20 -3 21 7 19 13 -6 13 -11 0 -18 -4 -14 -10z"/>
<path d="M2334 564 c19 -19 21 -45 4 -64 -11 -12 -10 -12 3 -2 14 10 18 10 23
-4 3 -9 4 -20 0 -25 -3 -5 7 -9 23 -9 16 0 23 3 16 8 -6 4 -16 19 -22 34 -9
24 -7 30 20 52 26 22 28 26 11 26 -11 0 -22 -9 -25 -20 -3 -11 -11 -20 -17
-20 -7 0 -10 8 -7 20 4 16 0 20 -20 20 -22 0 -23 -1 -9 -16z"/>
<path d="M1257 534 c-4 -4 -7 -12 -7 -18 0 -6 5 -4 11 4 7 11 8 4 3 -25 -4
-27 -3 -37 4 -30 14 14 19 68 6 72 -5 2 -13 0 -17 -3z"/>
<path d="M1307 533 c7 -3 10 -18 7 -41 l-4 -37 13 34 c18 48 40 53 35 10 -2
-24 1 -34 11 -34 8 0 16 7 18 15 4 13 3 13 -6 0 -9 -12 -11 -7 -9 20 3 34 2
35 -37 36 -22 1 -35 -1 -28 -3z"/>
<path d="M1416 521 c-27 -30 -17 -56 22 -58 17 -1 35 4 38 9 4 6 2 8 -3 5 -7
-4 -10 5 -9 25 1 39 -22 48 -48 19z m37 2 c7 -12 -11 -53 -23 -53 -11 0 -14
43 -3 53 9 9 21 9 26 0z"/>
<path d="M1505 529 c-3 -5 1 -6 9 -3 10 4 16 1 16 -9 0 -29 -11 -46 -27 -40
-10 4 -14 2 -10 -4 8 -13 65 -15 72 -2 3 5 -1 6 -10 3 -13 -6 -16 -1 -13 22 2
22 8 28 22 26 10 -2 15 1 12 6 -7 12 -64 13 -71 1z"/>
<path d="M1876 475 c-20 -15 -20 -15 0 -15 12 0 21 7 21 15 0 8 -1 15 -1 15
-1 0 -10 -7 -20 -15z"/>
<path d="M2104 478 c-4 -7 -3 -8 4 -4 18 11 15 -30 -4 -48 -14 -14 -14 -16 0
-16 15 0 38 57 29 73 -6 11 -21 9 -29 -5z"/>
<path d="M2438 485 c-7 -7 2 -55 11 -55 3 0 7 14 8 30 2 28 -6 38 -19 25z"/>
<path d="M2484 478 c-4 -7 -3 -8 4 -4 18 11 15 -30 -4 -48 -14 -14 -14 -16 0
-16 15 0 38 57 29 73 -6 11 -21 9 -29 -5z"/>
<path d="M179 471 c11 -7 11 -20 -2 -77 -9 -39 -24 -74 -33 -81 -16 -11 -14
-13 17 -13 22 0 29 3 21 9 -11 6 -10 20 3 72 9 35 18 65 20 67 1 2 15 -29 30
-67 15 -39 30 -73 35 -76 4 -3 16 30 25 73 9 42 24 83 33 90 13 10 11 12 -19
12 -24 0 -30 -3 -20 -9 12 -8 13 -18 1 -68 -10 -47 -14 -54 -21 -38 -5 11 -18
41 -28 68 -17 40 -24 47 -48 47 -20 0 -24 -3 -14 -9z"/>
<path d="M398 471 c18 -11 -13 -147 -36 -161 -12 -7 -1 -9 43 -10 68 0 96 14
120 60 19 37 19 70 -1 98 -13 19 -24 22 -77 22 -36 0 -57 -4 -49 -9z m98 -9
c29 -20 20 -96 -17 -133 -22 -22 -84 -27 -76 -6 2 7 10 39 17 72 7 33 14 63
17 68 5 9 45 9 59 -1z"/>
<path d="M674 469 c-6 -8 -30 -46 -53 -86 -22 -39 -49 -74 -59 -76 -9 -3 -2
-5 16 -6 18 0 31 3 28 8 -13 21 7 41 40 41 27 0 34 -4 34 -19 0 -11 -8 -22
-17 -24 -10 -3 1 -5 25 -6 29 -1 44 4 48 14 4 8 10 15 15 15 5 0 4 -12 -1 -26
-14 -36 -13 -44 8 -43 9 0 12 3 5 5 -9 4 -9 13 -2 30 5 14 9 30 9 35 0 15 -30
10 -36 -6 -4 -8 -12 -15 -20 -15 -10 0 -14 14 -15 48 0 26 -3 65 -7 86 -6 31
-9 36 -18 25z m-4 -74 c0 -28 -4 -35 -20 -35 -24 0 -24 3 -5 40 20 39 25 38
25 -5z"/>
<path d="M1766 465 c4 -8 8 -15 10 -15 2 0 4 7 4 15 0 8 -4 15 -10 15 -5 0 -7
-7 -4 -15z"/>
<path d="M2305 470 c-19 -8 -19 -9 3 -9 12 -1 22 4 22 9 0 6 -1 10 -2 9 -2 0
-12 -4 -23 -9z"/>
<path d="M998 383 c23 -2 61 -2 85 0 23 2 4 4 -43 4 -47 0 -66 -2 -42 -4z"/>
<path d="M760 359 c0 -5 5 -7 10 -4 6 3 10 8 10 11 0 2 -4 4 -10 4 -5 0 -10
-5 -10 -11z"/>
<path d="M840 359 c0 -5 5 -7 10 -4 6 3 10 8 10 11 0 2 -4 4 -10 4 -5 0 -10
-5 -10 -11z"/>
<path d="M1593 363 c203 -2 531 -2 730 0 199 1 34 2 -368 2 -401 0 -564 -1
-362 -2z"/>
<path d="M815 331 c-3 -7 0 -8 9 -5 13 5 14 1 2 -38 -7 -23 -18 -42 -24 -41
-7 2 -12 -2 -12 -7 0 -17 29 -11 39 9 15 28 18 83 4 88 -6 2 -14 -1 -18 -6z"/>
<path d="M998 333 c23 -2 61 -2 85 0 23 2 4 4 -43 4 -47 0 -66 -2 -42 -4z"/>
<path d="M1887 287 c-14 -21 -14 -25 -2 -21 10 4 15 0 15 -11 0 -12 -6 -16
-20 -12 -11 3 -20 2 -20 -2 0 -4 -9 -17 -20 -29 -20 -21 -20 -22 -2 -22 13 0
19 6 18 17 -1 12 7 19 23 21 20 3 23 0 18 -17 -4 -16 0 -21 14 -21 12 0 16 5
13 14 -3 8 -8 36 -12 62 l-7 48 -18 -27z"/>
<path d="M1958 298 c7 -7 12 -28 12 -47 0 -52 14 -70 30 -40 7 13 20 34 28 47
8 12 12 22 9 22 -3 0 -14 -14 -25 -31 l-19 -31 -6 38 c-4 25 -2 41 6 46 7 5 0
8 -17 8 -23 0 -27 -3 -18 -12z"/>
<path d="M2035 300 c3 -5 12 -7 20 -3 21 7 19 13 -6 13 -11 0 -18 -4 -14 -10z"/>
<path d="M2054 208 c-4 -7 -3 -8 4 -4 18 11 15 -30 -4 -48 -14 -14 -14 -16 0
-16 15 0 38 57 29 73 -6 11 -21 9 -29 -5z"/>
</g>
</svg>
