<?xml version="1.0" standalone="no"?>
<!DOCTYPE svg PUBLIC "-//W3C//DTD SVG 20010904//EN"
 "http://www.w3.org/TR/2001/REC-SVG-20010904/DTD/svg10.dtd">
<svg version="1.0" xmlns="http://www.w3.org/2000/svg"
 width="298.000000pt" height="156.000000pt" viewBox="0 0 298.000000 156.000000"
 preserveAspectRatio="xMidYMid meet">

<g transform="translate(0.000000,156.000000) scale(0.100000,-0.100000)"
fill="#000000" stroke="none">
<path d="M1097 1404 c-4 -4 -7 -12 -7 -18 0 -6 5 -4 11 4 8 11 9 5 4 -25 -4
-27 -3 -37 4 -30 14 14 18 67 5 72 -5 2 -13 0 -17 -3z"/>
<path d="M1148 1403 c8 -3 11 -17 7 -41 -5 -36 4 -26 19 21 3 9 12 17 20 17
11 0 13 -6 6 -30 -9 -33 4 -50 23 -30 9 10 9 11 -1 6 -9 -5 -12 2 -10 26 3 32
2 33 -37 35 -22 0 -34 -1 -27 -4z"/>
<path d="M858 1363 c11 -16 34 -46 50 -68 l30 -40 -44 -51 c-24 -29 -44 -55
-44 -58 0 -3 47 -6 104 -6 l104 0 10 30 11 30 -29 -21 c-38 -29 -170 -41 -170
-16 0 9 4 18 9 22 5 3 23 23 40 44 l30 38 -39 53 c-22 30 -40 55 -40 57 0 2
31 3 69 3 60 0 74 -3 100 -26 34 -28 37 -27 19 11 -11 25 -13 25 -120 25
l-109 0 19 -27z"/>
<path d="M182 1364 c-14 -10 -22 -26 -22 -45 0 -25 5 -30 30 -36 36 -7 44 -16
35 -43 -12 -38 -75 -36 -75 4 0 17 -2 18 -10 6 -20 -31 -11 -45 30 -48 46 -3
80 23 80 63 0 19 -8 28 -36 40 -38 16 -43 39 -13 58 23 15 49 1 49 -25 0 -19
2 -20 10 -8 5 8 10 22 10 30 0 21 -60 24 -88 4z"/>
<path d="M329 1371 c19 -12 -15 -158 -38 -164 -9 -3 4 -5 29 -5 25 0 38 2 29
5 -13 3 -15 11 -10 36 6 27 12 33 44 38 66 11 101 65 58 89 -24 12 -132 14
-112 1z m99 -29 c5 -32 -15 -52 -50 -52 -26 0 -29 3 -23 23 4 12 9 30 12 40 7
28 57 19 61 -11z"/>
<path d="M2053 1373 c11 -3 16 -11 13 -21 -3 -9 -10 -37 -16 -62 -19 -75 -20
-79 -38 -83 -9 -3 3 -5 28 -6 29 0 40 2 31 8 -9 6 -11 18 -6 40 6 27 11 31 39
31 41 0 76 25 76 54 0 36 -19 46 -84 45 -34 -1 -53 -3 -43 -6z m100 -37 c-2
-33 -17 -46 -50 -46 -25 0 -26 3 -17 49 6 29 10 32 38 29 27 -3 31 -6 29 -32z"/>
<path d="M2238 1372 c18 -12 -14 -159 -37 -165 -9 -3 11 -5 44 -6 68 -1 96 13
120 59 19 37 19 70 -1 98 -13 19 -24 22 -77 22 -36 0 -57 -4 -49 -8z m98 -10
c29 -20 20 -96 -17 -133 -22 -22 -84 -27 -76 -6 2 7 10 39 17 72 7 33 14 63
17 68 5 9 45 9 59 -1z"/>
<path d="M2471 1305 c-23 -41 -52 -82 -64 -90 -21 -15 -21 -15 9 -15 25 0 30
4 30 23 -1 18 5 23 32 25 26 3 32 0 32 -17 0 -10 -6 -22 -12 -24 -7 -3 5 -6
27 -6 22 0 35 3 28 7 -7 4 -15 44 -19 90 -4 45 -10 82 -13 82 -4 0 -26 -34
-50 -75z m36 -42 c-3 -2 -15 -3 -26 -1 l-21 3 22 35 23 35 3 -33 c2 -19 1 -36
-1 -39z"/>
<path d="M1813 1294 l27 -30 -25 -24 c-14 -13 -25 -28 -25 -34 0 -5 14 3 30
19 l30 29 33 -30 32 -29 -29 33 -30 32 29 30 c16 17 24 30 19 30 -6 0 -21 -11
-34 -25 l-24 -25 -30 27 -31 28 28 -31z"/>
<path d="M1452 1298 c-6 -6 -12 -17 -12 -22 0 -6 7 -2 15 8 20 27 27 16 14
-23 -16 -44 -1 -59 59 -57 43 1 48 4 64 36 21 41 23 73 6 67 -7 -2 -12 -15
-10 -30 4 -32 -14 -67 -34 -67 -13 0 -15 7 -9 38 4 20 7 39 8 42 1 3 -2 7 -8
10 -5 3 -14 -15 -20 -40 -7 -28 -17 -45 -25 -45 -15 0 -16 13 -9 65 4 27 -19
38 -39 18z"/>
<path d="M627 1283 c24 -2 62 -2 86 0 23 2 4 4 -43 4 -47 0 -66 -2 -43 -4z"/>
<path d="M460 1260 c0 -5 5 -10 10 -10 6 0 10 5 10 10 0 6 -4 10 -10 10 -5 0
-10 -4 -10 -10z"/>
<path d="M1660 1259 c0 -5 5 -7 10 -4 6 3 10 8 10 11 0 2 -4 4 -10 4 -5 0 -10
-5 -10 -11z"/>
<path d="M2600 1259 c0 -5 5 -7 10 -4 6 3 10 8 10 11 0 2 -4 4 -10 4 -5 0 -10
-5 -10 -11z"/>
<path d="M2680 1259 c0 -5 5 -7 10 -4 6 3 10 8 10 11 0 2 -4 4 -10 4 -5 0 -10
-5 -10 -11z"/>
<path d="M444 1228 c-4 -7 -3 -8 4 -4 15 9 15 1 1 -26 -14 -26 4 -49 24 -29
10 11 9 12 -1 6 -10 -5 -12 1 -7 29 7 35 -5 50 -21 24z"/>
<path d="M627 1233 c24 -2 62 -2 86 0 23 2 4 4 -43 4 -47 0 -66 -2 -43 -4z"/>
<path d="M1140 1229 c0 -5 5 -7 10 -4 6 3 10 8 10 11 0 2 -4 4 -10 4 -5 0 -10
-5 -10 -11z"/>
<path d="M1320 1230 c-10 -6 -11 -10 -2 -10 7 0 12 -15 12 -39 0 -22 -5 -42
-12 -44 -7 -3 3 -5 22 -5 19 0 29 2 23 5 -8 3 -13 24 -13 54 0 50 -4 56 -30
39z"/>
<path d="M1635 1230 c-4 -6 1 -7 11 -3 13 5 15 2 11 -13 -3 -10 -9 -31 -12
-46 -5 -17 -12 -25 -21 -21 -8 3 -14 0 -14 -6 0 -15 25 -14 38 2 6 7 14 32 18
55 5 34 4 42 -9 42 -9 0 -19 -4 -22 -10z"/>
<path d="M2575 1229 c-4 -6 -4 -13 -1 -16 3 -4 6 -1 6 5 0 7 4 12 10 12 6 0 6
-9 0 -26 -14 -36 -13 -44 8 -43 9 0 12 3 5 5 -9 4 -9 13 -2 30 5 14 9 30 9 35
0 12 -27 11 -35 -2z"/>
<path d="M2655 1231 c-3 -7 0 -8 9 -5 13 5 14 1 2 -38 -7 -23 -18 -42 -24 -40
-7 1 -12 -2 -12 -8 0 -17 29 -11 39 9 15 28 18 83 4 88 -6 2 -14 -1 -18 -6z"/>
<path d="M1115 1201 c-3 -7 0 -8 9 -5 13 5 14 1 2 -38 -7 -23 -18 -42 -24 -40
-7 1 -12 -2 -12 -8 0 -17 29 -11 39 9 15 28 18 83 4 88 -6 2 -14 -1 -18 -6z"/>
<path d="M1137 444 c-4 -4 -7 -12 -7 -18 0 -6 5 -4 11 4 8 11 9 5 4 -25 -4
-27 -3 -37 4 -30 14 14 18 67 5 72 -5 2 -13 0 -17 -3z"/>
<path d="M1188 443 c8 -3 11 -17 7 -41 -5 -36 4 -26 19 21 3 9 12 17 20 17 11
0 13 -6 6 -30 -9 -33 4 -50 23 -30 9 10 9 11 -1 6 -9 -5 -12 2 -10 26 3 32 2
33 -37 35 -22 0 -34 -1 -27 -4z"/>
<path d="M886 418 c4 -7 25 -36 46 -65 21 -29 38 -55 38 -58 0 -4 -21 -31 -46
-61 l-46 -54 111 0 c61 0 111 3 111 8 0 4 3 18 7 31 l6 25 -22 -21 c-12 -11
-39 -23 -59 -27 -49 -8 -122 -8 -122 0 0 4 20 30 44 59 l44 51 -39 51 c-21 29
-39 54 -39 57 0 3 31 6 69 6 60 0 74 -4 100 -26 l30 -25 -10 30 -11 31 -110 0
c-85 0 -108 -3 -102 -12z"/>
<path d="M182 404 c-14 -10 -22 -26 -22 -45 0 -25 5 -30 30 -36 36 -7 44 -16
35 -43 -12 -38 -75 -36 -75 4 0 17 -2 18 -10 6 -20 -31 -11 -45 30 -48 46 -3
80 23 80 63 0 19 -8 28 -36 40 -38 16 -43 39 -13 58 23 15 49 1 49 -25 0 -19
2 -20 10 -8 5 8 10 22 10 30 0 21 -60 24 -88 4z"/>
<path d="M328 412 c18 -12 -12 -148 -36 -162 -13 -7 -10 -9 18 -10 22 0 30 3
22 8 -10 7 -10 20 -1 63 18 87 23 87 55 5 16 -42 31 -76 34 -76 4 0 14 35 24
78 10 42 25 83 34 90 13 10 11 12 -19 12 -23 0 -30 -3 -20 -9 12 -8 12 -18 -1
-67 l-14 -59 -26 65 c-23 57 -29 65 -54 68 -19 2 -25 0 -16 -6z"/>
<path d="M2091 413 c14 -3 15 -11 7 -46 -20 -92 -29 -116 -46 -120 -9 -3 1 -5
23 -5 22 0 34 2 28 5 -16 6 -16 35 1 98 15 56 11 60 51 -45 10 -25 21 -49 26
-54 8 -9 25 42 35 107 4 22 16 44 28 52 19 14 18 15 -19 15 -31 -1 -36 -3 -24
-10 14 -8 15 -16 7 -52 -6 -24 -14 -47 -18 -51 -4 -5 -17 19 -30 52 -21 57
-24 61 -54 60 -17 -1 -24 -3 -15 -6z"/>
<path d="M2308 411 c20 -12 -13 -158 -36 -164 -10 -3 12 -5 47 -6 59 -1 65 1
97 33 27 27 34 42 34 73 0 56 -22 73 -96 73 -36 0 -54 -4 -46 -9z m106 -17
c19 -18 20 -30 5 -75 -14 -43 -44 -69 -79 -69 -28 0 -28 0 -18 43 23 107 28
117 53 117 13 0 31 -7 39 -16z"/>
<path d="M2550 350 c-23 -41 -52 -83 -63 -92 -19 -18 -19 -18 7 -18 15 0 25 4
22 9 -13 21 7 41 40 41 27 0 34 -4 34 -19 0 -11 -6 -22 -12 -24 -7 -3 4 -6 25
-6 35 -1 37 0 23 15 -10 10 -16 35 -17 67 -1 29 -4 63 -8 77 -6 23 -11 19 -51
-50z m33 -42 c-5 -9 -43 -11 -43 -2 0 3 8 19 18 36 l17 29 6 -28 c3 -15 4 -31
2 -35z"/>
<path d="M1853 334 l27 -30 -25 -24 c-14 -13 -25 -28 -25 -34 0 -5 14 3 30 19
l30 29 33 -30 32 -29 -29 33 -30 32 29 30 c16 17 24 30 19 30 -6 0 -21 -11
-34 -25 l-24 -25 -30 27 -31 28 28 -31z"/>
<path d="M1492 338 c-6 -6 -12 -17 -12 -22 0 -6 7 -2 15 8 20 27 27 16 14 -23
-16 -44 -1 -59 59 -57 43 1 48 4 64 36 21 41 23 73 6 67 -7 -2 -12 -15 -10
-30 4 -32 -14 -67 -34 -67 -13 0 -15 7 -9 38 4 20 7 39 8 42 1 3 -2 7 -8 10
-5 3 -14 -15 -20 -40 -7 -28 -17 -45 -25 -45 -15 0 -16 13 -9 65 4 27 -19 38
-39 18z"/>
<path d="M668 323 c23 -2 61 -2 85 0 23 2 4 4 -43 4 -47 0 -66 -2 -42 -4z"/>
<path d="M500 309 c0 -5 5 -7 10 -4 6 3 10 8 10 11 0 2 -4 4 -10 4 -5 0 -10
-5 -10 -11z"/>
<path d="M1700 309 c0 -5 5 -7 10 -4 6 3 10 8 10 11 0 2 -4 4 -10 4 -5 0 -10
-5 -10 -11z"/>
<path d="M2670 310 c0 -5 5 -10 10 -10 6 0 10 5 10 10 0 6 -4 10 -10 10 -5 0
-10 -4 -10 -10z"/>
<path d="M2750 309 c0 -5 5 -7 10 -4 6 3 10 8 10 11 0 2 -4 4 -10 4 -5 0 -10
-5 -10 -11z"/>
<path d="M475 279 c-4 -6 -4 -13 -1 -16 3 -4 6 -1 6 5 0 7 4 12 10 12 6 0 6
-9 0 -26 -14 -36 -13 -44 8 -43 9 0 12 3 5 5 -9 4 -9 13 -2 30 5 14 9 30 9 35
0 12 -27 11 -35 -2z"/>
<path d="M1675 280 c-4 -6 1 -7 11 -3 13 5 15 2 11 -13 -3 -10 -9 -31 -12 -46
-5 -17 -12 -25 -21 -21 -8 3 -14 0 -14 -6 0 -15 25 -14 38 2 6 7 14 32 18 55
5 34 4 42 -9 42 -9 0 -19 -4 -22 -10z"/>
<path d="M2654 278 c-4 -7 -3 -8 4 -4 15 9 15 1 1 -26 -14 -26 4 -49 24 -29
10 11 9 12 -1 6 -10 -5 -12 1 -7 29 7 35 -5 50 -21 24z"/>
<path d="M2725 280 c-4 -6 1 -7 11 -3 13 5 15 2 11 -13 -3 -10 -9 -31 -12 -46
-5 -17 -12 -25 -21 -21 -8 3 -14 0 -14 -6 0 -15 25 -14 38 2 6 7 14 32 18 55
5 34 4 42 -9 42 -9 0 -19 -4 -22 -10z"/>
<path d="M668 273 c23 -2 61 -2 85 0 23 2 4 4 -43 4 -47 0 -66 -2 -42 -4z"/>
<path d="M1180 269 c0 -5 5 -7 10 -4 6 3 10 8 10 11 0 2 -4 4 -10 4 -5 0 -10
-5 -10 -11z"/>
<path d="M1360 270 c-10 -6 -11 -10 -2 -10 7 0 12 -15 12 -39 0 -22 -5 -42
-12 -44 -7 -3 3 -5 22 -5 19 0 29 2 23 5 -8 3 -13 24 -13 54 0 50 -4 56 -30
39z"/>
<path d="M1155 241 c-3 -7 0 -8 9 -5 13 5 14 1 2 -38 -7 -23 -18 -42 -24 -41
-7 2 -12 -2 -12 -7 0 -17 29 -11 39 9 15 28 18 83 4 88 -6 2 -14 -1 -18 -6z"/>
</g>
</svg>
