<?xml version="1.0" standalone="no"?>
<!DOCTYPE svg PUBLIC "-//W3C//DTD SVG 20010904//EN"
 "http://www.w3.org/TR/2001/REC-SVG-20010904/DTD/svg10.dtd">
<svg version="1.0" xmlns="http://www.w3.org/2000/svg"
 width="249.000000pt" height="171.000000pt" viewBox="0 0 249.000000 171.000000"
 preserveAspectRatio="xMidYMid meet">

<g transform="translate(0.000000,171.000000) scale(0.100000,-0.100000)"
fill="#000000" stroke="none">
<path d="M1352 1608 c-20 -20 -14 -44 14 -57 21 -9 24 -14 14 -26 -16 -20 -37
-19 -48 1 -8 15 -10 14 -14 -2 -4 -15 1 -19 21 -21 59 -3 86 48 35 67 -29 12
-27 34 3 38 14 2 23 -3 25 -15 3 -16 4 -16 9 2 5 17 1 21 -20 23 -15 1 -32 -3
-39 -10z"/>
<path d="M1456 1614 c16 -7 -3 -85 -24 -101 -14 -11 -12 -13 11 -13 17 0 25 4
22 13 -7 17 6 34 30 40 19 4 19 5 -1 6 -17 1 -20 6 -16 27 3 19 10 24 26 22
16 -2 20 -9 19 -28 -3 -24 -2 -24 12 -6 21 28 2 46 -49 45 -22 0 -36 -3 -30
-5z"/>
<path d="M119 1531 c11 -7 11 -20 -2 -77 -9 -39 -24 -74 -33 -81 -16 -11 -14
-13 17 -13 22 0 29 3 21 9 -11 6 -10 20 3 72 9 35 18 65 20 67 1 2 15 -29 30
-67 15 -39 30 -73 35 -76 4 -3 16 30 25 73 9 42 24 83 33 90 13 10 11 12 -19
12 -24 0 -30 -3 -20 -9 12 -8 13 -18 1 -68 -10 -47 -14 -54 -21 -38 -5 11 -18
41 -28 68 -17 40 -24 47 -48 47 -20 0 -24 -3 -14 -9z"/>
<path d="M341 1514 c-12 -15 -21 -30 -21 -35 0 -14 31 -39 50 -39 27 0 34 -31
12 -53 -24 -24 -62 -15 -62 14 0 26 -16 16 -22 -13 -4 -21 0 -23 37 -25 33 -2
46 2 65 21 31 34 22 72 -20 81 -33 7 -40 34 -15 55 19 16 45 5 53 -22 5 -21 6
-21 13 -2 13 34 10 39 -30 42 -32 2 -43 -2 -60 -24z"/>
<path d="M499 1531 c19 -12 -15 -158 -38 -164 -9 -3 4 -5 29 -5 25 0 38 2 29
5 -13 3 -15 11 -10 36 6 27 12 33 44 38 66 11 101 65 58 89 -24 12 -132 14
-112 1z m99 -29 c5 -32 -15 -52 -50 -52 -26 0 -29 3 -23 23 4 12 9 30 12 40 7
28 57 19 61 -11z"/>
<path d="M1534 1518 c-4 -7 -3 -8 5 -4 9 6 10 0 5 -19 -5 -20 -3 -26 5 -24 7
3 12 8 12 12 -1 4 -1 16 -1 27 0 22 -15 27 -26 8z"/>
<path d="M793 1443 c26 -2 67 -2 90 0 23 2 2 3 -48 3 -49 0 -68 -1 -42 -3z"/>
<path d="M630 1419 c0 -5 5 -7 10 -4 6 3 10 8 10 11 0 2 -4 4 -10 4 -5 0 -10
-5 -10 -11z"/>
<path d="M1228 1423 c116 -2 308 -2 425 0 116 1 21 2 -213 2 -234 0 -329 -1
-212 -2z"/>
<path d="M605 1389 c-4 -6 -4 -13 -1 -16 3 -4 6 -1 6 5 0 7 4 12 10 12 6 0 6
-9 0 -26 -14 -36 -13 -44 8 -43 9 0 12 3 5 5 -9 4 -9 13 -2 30 5 14 9 30 9 35
0 12 -27 11 -35 -2z"/>
<path d="M793 1393 c26 -2 67 -2 90 0 23 2 2 3 -48 3 -49 0 -68 -1 -42 -3z"/>
<path d="M1464 1343 c-19 -44 -13 -99 13 -122 13 -13 15 -13 6 -1 -20 28 -24
76 -10 119 18 51 11 54 -9 4z"/>
<path d="M1807 1338 c12 -36 12 -47 0 -85 -12 -35 -12 -41 -1 -32 29 24 25
135 -6 154 -4 2 -1 -14 7 -37z"/>
<path d="M1546 1354 c-22 -22 -20 -33 9 -46 31 -14 29 -42 -3 -46 -16 -2 -22
2 -22 15 0 15 -2 16 -10 3 -14 -22 -13 -25 17 -28 28 -2 63 22 63 45 0 7 -11
18 -25 23 -14 5 -25 14 -25 20 0 17 29 23 45 10 12 -10 15 -10 15 2 0 19 -46
21 -64 2z"/>
<path d="M1655 1361 c9 -16 -5 -80 -22 -96 -13 -13 -11 -15 10 -15 18 0 23 5
23 21 -1 15 8 24 34 33 28 9 35 16 35 36 0 22 -5 25 -43 28 -29 2 -42 0 -37
-7z m68 -7 c12 -12 -14 -44 -34 -44 -15 0 -19 5 -15 16 3 9 6 20 6 25 0 10 33
12 43 3z"/>
<path d="M1057 1324 c8 -4 9 -15 2 -37 -11 -39 -11 -37 -1 -37 4 0 12 14 17
32 6 17 16 34 24 36 11 4 12 -4 7 -34 -5 -26 -4 -36 3 -29 5 6 11 24 13 40 3
29 1 30 -37 32 -22 0 -35 -1 -28 -3z"/>
<path d="M1148 1323 c9 -3 11 -16 6 -39 -7 -37 5 -45 27 -16 13 15 12 16 -3 4
-15 -12 -16 -10 -11 22 5 31 3 36 -13 35 -11 0 -14 -3 -6 -6z"/>
<path d="M1210 1316 c-6 -8 -10 -25 -8 -38 2 -18 10 -23 33 -25 27 -1 30 2 30
30 0 45 -30 63 -55 33z m40 -10 c0 -25 -12 -46 -26 -46 -17 0 -18 14 -4 41 12
22 30 25 30 5z"/>
<path d="M1305 1319 c-3 -5 1 -6 9 -3 17 7 19 1 10 -33 -4 -13 -11 -20 -20
-16 -8 3 -14 0 -14 -6 0 -15 73 -9 76 7 1 7 0 8 -3 2 -2 -5 -11 -10 -18 -10
-10 0 -11 7 -6 28 5 15 13 26 20 25 6 -2 11 1 11 5 0 12 -58 13 -65 1z"/>
<path d="M1397 1283 c-2 -5 -1 -19 4 -33 8 -27 9 -26 13 8 3 23 -9 39 -17 25z"/>
<path d="M1738 1285 c-7 -7 2 -55 11 -55 3 0 7 14 8 30 2 28 -6 38 -19 25z"/>
<path d="M1843 553 c9 -2 17 -9 17 -14 0 -5 5 -9 10 -9 24 0 7 26 -17 27 -16
0 -20 -1 -10 -4z"/>
<path d="M1917 553 c8 -3 11 -15 8 -31 -4 -22 -4 -23 4 -7 8 18 12 14 31 -30
22 -47 23 -49 30 -25 10 33 11 61 1 36 -6 -15 -10 -11 -26 23 -13 30 -24 41
-39 40 -12 0 -15 -3 -9 -6z"/>
<path d="M1998 538 c4 -16 7 -18 10 -8 3 8 10 18 16 22 6 5 2 8 -11 8 -17 0
-20 -4 -15 -22z"/>
<path d="M1805 536 c-8 -18 8 -39 38 -49 6 -2 8 -11 4 -21 -8 -20 -54 -18 -49
2 1 8 -2 11 -8 7 -20 -12 -9 -31 19 -33 36 -3 68 33 49 55 -6 7 -16 13 -24 13
-7 0 -14 10 -17 23 -3 20 -4 21 -12 3z"/>
<path d="M1911 474 c0 -11 3 -14 6 -6 3 7 2 16 -1 19 -3 4 -6 -2 -5 -13z"/>
<path d="M119 471 c11 -7 11 -20 -2 -77 -9 -39 -24 -74 -33 -81 -16 -11 -14
-13 17 -13 22 0 29 3 21 9 -11 6 -10 20 3 72 9 35 18 65 20 67 1 2 15 -29 30
-67 15 -39 30 -73 35 -76 4 -3 16 30 25 73 9 42 24 83 33 90 13 10 11 12 -19
12 -24 0 -30 -3 -20 -9 12 -8 13 -18 1 -68 -10 -47 -14 -54 -21 -38 -5 11 -18
41 -28 68 -17 40 -24 47 -48 47 -20 0 -24 -3 -14 -9z"/>
<path d="M341 454 c-12 -15 -21 -30 -21 -35 0 -14 31 -39 50 -39 27 0 34 -31
12 -53 -24 -24 -62 -15 -62 14 0 26 -16 16 -22 -13 -4 -21 0 -23 37 -25 33 -2
46 2 65 21 31 34 22 72 -20 81 -33 7 -40 34 -15 55 19 16 45 5 53 -22 5 -21 6
-21 13 -2 13 34 10 39 -30 42 -32 2 -43 -2 -60 -24z"/>
<path d="M498 472 c18 -12 -12 -148 -36 -162 -13 -7 -10 -9 18 -10 22 0 30 3
22 8 -10 7 -10 20 -1 63 18 87 23 87 55 5 16 -42 31 -76 34 -76 4 0 14 35 24
78 10 42 25 83 34 90 13 10 11 12 -19 12 -23 0 -30 -3 -20 -9 12 -8 12 -18 -1
-67 l-14 -59 -26 65 c-23 57 -29 65 -54 68 -19 2 -25 0 -16 -6z"/>
<path d="M2024 458 c-4 -7 -3 -8 5 -4 9 6 10 0 5 -19 -5 -20 -3 -26 5 -24 7 3
12 8 12 12 -1 4 -1 16 -1 27 0 22 -15 27 -26 8z"/>
<path d="M1075 450 c-17 -7 -17 -9 -2 -9 14 -1 17 -11 17 -65 0 -53 -3 -65
-17 -69 -10 -3 2 -5 27 -5 25 0 37 2 28 5 -15 4 -18 16 -18 79 0 76 -1 79 -35
64z"/>
<path d="M1898 443 c6 -2 18 -2 25 0 6 3 1 5 -13 5 -14 0 -19 -2 -12 -5z"/>
<path d="M833 383 c26 -2 67 -2 90 0 23 2 2 3 -48 3 -49 0 -68 -1 -42 -3z"/>
<path d="M670 369 c0 -5 5 -7 10 -4 6 3 10 8 10 11 0 2 -4 4 -10 4 -5 0 -10
-5 -10 -11z"/>
<path d="M1278 363 c23 -2 59 -2 80 0 20 2 1 4 -43 4 -44 0 -61 -2 -37 -4z"/>
<path d="M1703 363 c119 -2 315 -2 435 0 119 1 21 2 -218 2 -239 0 -337 -1
-217 -2z"/>
<path d="M645 339 c-4 -6 -4 -13 -1 -16 3 -4 6 -1 6 5 0 7 4 12 10 12 6 0 6
-9 0 -26 -14 -36 -13 -44 8 -43 9 0 12 3 5 5 -9 4 -9 13 -2 30 5 14 9 30 9 35
0 12 -27 11 -35 -2z"/>
<path d="M833 333 c26 -2 67 -2 90 0 23 2 2 3 -48 3 -49 0 -68 -1 -42 -3z"/>
<path d="M1936 298 c-21 -29 -20 -107 1 -133 l16 -20 -8 20 c-17 42 -17 105
-1 130 20 31 13 33 -8 3z"/>
<path d="M2294 295 c18 -35 20 -72 6 -112 -10 -27 -9 -27 6 -8 20 26 14 110
-10 133 -16 16 -16 15 -2 -13z"/>
<path d="M2012 298 c-19 -19 -14 -44 13 -56 17 -8 23 -16 18 -28 -4 -12 -3
-15 5 -10 21 13 13 46 -14 56 -29 12 -27 34 3 38 14 2 23 -3 25 -15 3 -16 4
-16 9 2 5 17 1 21 -20 23 -15 1 -32 -3 -39 -10z"/>
<path d="M2114 262 l-2 -47 10 35 11 35 22 -48 c13 -27 26 -44 29 -38 10 16
-36 111 -54 111 -11 0 -15 -13 -16 -48z"/>
<path d="M2197 294 c3 -9 9 -12 12 -7 3 4 10 11 15 16 5 4 0 7 -12 7 -15 0
-20 -4 -15 -16z"/>
<path d="M1510 258 c0 -5 5 -6 10 -3 12 8 12 8 1 -33 -5 -17 -6 -32 -2 -32 5
0 12 14 17 32 5 17 16 34 23 36 11 4 13 -3 8 -32 -7 -44 5 -48 18 -4 15 47 38
50 30 4 -6 -31 -5 -36 11 -35 11 0 14 3 9 5 -6 2 -9 19 -7 37 l4 34 -61 0
c-34 0 -61 -4 -61 -9z"/>
<path d="M1676 251 c-27 -30 -17 -56 22 -58 17 -1 35 4 38 9 4 6 2 8 -3 5 -7
-4 -10 5 -9 25 1 39 -22 48 -48 19z m37 2 c7 -12 -11 -53 -23 -53 -11 0 -14
43 -3 53 9 9 21 9 26 0z"/>
<path d="M1765 259 c-3 -5 1 -6 9 -3 10 4 16 1 16 -9 0 -29 -11 -46 -27 -40
-10 4 -14 2 -10 -4 8 -13 65 -15 72 -2 3 5 -1 6 -10 3 -13 -6 -16 -1 -13 22 2
22 8 28 22 26 10 -2 15 1 12 6 -7 12 -64 13 -71 1z"/>
<path d="M2191 254 c0 -11 3 -14 6 -6 3 7 2 16 -1 19 -3 4 -6 -2 -5 -13z"/>
<path d="M1858 225 c-7 -7 2 -55 11 -55 3 0 7 14 8 30 2 28 -6 38 -19 25z"/>
<path d="M1980 218 c0 -17 36 -35 47 -24 4 3 -1 6 -10 6 -9 0 -21 8 -26 18 -9
15 -10 16 -11 0z"/>
<path d="M2228 225 c-7 -7 2 -55 11 -55 3 0 7 14 8 30 2 28 -6 38 -19 25z"/>
<path d="M2090 200 c-12 -8 -10 -10 8 -10 13 0 20 4 17 10 -7 12 -6 12 -25 0z"/>
</g>
</svg>
