<?xml version="1.0" standalone="no"?>
<!DOCTYPE svg PUBLIC "-//W3C//DTD SVG 20010904//EN"
 "http://www.w3.org/TR/2001/REC-SVG-20010904/DTD/svg10.dtd">
<svg version="1.0" xmlns="http://www.w3.org/2000/svg"
 width="513.000000pt" height="59.000000pt" viewBox="0 0 513.000000 59.000000"
 preserveAspectRatio="xMidYMid meet">

<g transform="translate(0.000000,59.000000) scale(0.100000,-0.100000)"
fill="#000000" stroke="none">
<path d="M930 430 c-10 -6 -11 -10 -2 -10 7 0 12 -15 12 -39 0 -22 -5 -42 -12
-44 -7 -3 3 -5 22 -5 19 0 29 2 23 5 -8 3 -13 24 -13 54 0 50 -4 56 -30 39z"/>
<path d="M1097 382 c-23 -25 -37 -68 -37 -110 0 -40 33 -122 48 -122 6 0 1 17
-9 37 -25 49 -25 127 0 176 21 42 21 45 -2 19z"/>
<path d="M2721 363 c26 -51 26 -137 -1 -181 -12 -19 -15 -32 -9 -30 22 7 49
72 49 116 0 48 -19 100 -43 120 -12 10 -11 5 4 -25z"/>
<path d="M211 315 c-23 -41 -52 -82 -64 -90 -21 -15 -21 -15 9 -15 25 0 30 4
30 23 -1 18 5 23 32 25 26 3 32 0 32 -17 0 -10 -6 -22 -12 -24 -7 -3 5 -6 27
-6 22 0 35 3 28 7 -7 4 -15 44 -19 90 -4 45 -10 82 -13 82 -4 0 -26 -34 -50
-75z m36 -42 c-3 -2 -15 -3 -26 -1 l-21 3 22 35 23 35 3 -33 c2 -19 1 -36 -1
-39z"/>
<path d="M370 370 c-31 -31 -25 -59 15 -76 37 -15 46 -42 20 -64 -21 -17 -48
-9 -62 20 -9 17 -13 20 -13 8 0 -9 -2 -22 -5 -30 -4 -10 6 -13 38 -13 48 0 72
14 80 46 6 23 -23 59 -47 59 -8 0 -18 4 -21 10 -10 16 14 50 35 50 20 0 44
-32 33 -44 -3 -3 -1 -6 5 -6 7 0 12 6 12 14 0 8 2 20 5 28 9 23 -72 21 -95 -2z"/>
<path d="M1189 381 c11 -7 11 -20 -2 -77 -9 -39 -24 -74 -33 -81 -16 -11 -14
-13 17 -13 22 0 29 3 21 9 -11 6 -10 20 3 72 9 35 18 65 20 67 1 2 15 -29 30
-67 15 -39 30 -73 35 -76 4 -3 16 30 25 73 9 42 24 83 33 90 13 10 11 12 -19
12 -24 0 -30 -3 -20 -9 12 -8 13 -18 1 -68 -10 -47 -14 -54 -21 -38 -5 11 -18
41 -28 68 -17 40 -24 47 -48 47 -20 0 -24 -3 -14 -9z"/>
<path d="M1422 374 c-14 -10 -22 -26 -22 -45 0 -25 5 -30 30 -36 36 -7 44 -16
35 -43 -12 -38 -75 -36 -75 4 0 17 -2 18 -10 6 -20 -31 -11 -45 30 -48 46 -3
80 23 80 63 0 19 -8 28 -36 40 -38 16 -43 39 -13 58 23 15 49 1 49 -25 0 -19
2 -20 10 -8 5 8 10 22 10 30 0 21 -60 24 -88 4z"/>
<path d="M1569 381 c19 -12 -15 -158 -38 -164 -9 -3 4 -5 29 -5 25 0 38 2 29
5 -13 3 -15 11 -10 36 6 27 12 33 44 38 66 11 101 65 58 89 -24 12 -132 14
-112 1z m99 -29 c5 -32 -15 -52 -50 -52 -26 0 -29 3 -23 23 4 12 9 30 12 40 7
28 57 19 61 -11z"/>
<path d="M2098 382 c18 -12 -12 -148 -36 -162 -13 -7 -10 -9 18 -10 22 0 30 3
22 8 -10 7 -10 20 -1 63 18 87 23 87 55 5 16 -42 31 -76 34 -76 4 0 14 35 24
78 10 42 25 83 34 90 13 10 11 12 -19 12 -23 0 -30 -3 -20 -9 12 -8 12 -18 -1
-67 l-14 -59 -26 65 c-23 57 -29 65 -54 68 -19 2 -25 0 -16 -6z"/>
<path d="M2320 370 c-31 -31 -25 -59 15 -76 37 -15 46 -42 20 -64 -21 -17 -48
-9 -62 20 -9 17 -13 20 -13 8 0 -9 -2 -22 -5 -30 -4 -10 6 -13 38 -13 48 0 72
14 80 46 6 23 -23 59 -47 59 -8 0 -18 4 -21 10 -10 16 14 50 35 50 20 0 44
-32 33 -44 -3 -3 -1 -6 5 -6 7 0 12 6 12 14 0 8 2 20 5 28 9 23 -72 21 -95 -2z"/>
<path d="M2477 382 c15 -10 -13 -142 -35 -159 -13 -11 -11 -13 19 -13 24 0 30
3 20 9 -12 8 -12 18 -1 70 7 34 16 61 20 61 4 0 19 -32 34 -70 15 -39 31 -68
36 -65 4 3 13 35 20 71 7 38 21 75 31 85 19 19 18 19 -13 19 -22 0 -29 -3 -22
-10 11 -11 -2 -110 -15 -110 -3 0 -17 27 -29 60 -21 53 -27 60 -50 60 -16 0
-22 -3 -15 -8z"/>
<path d="M3038 378 c16 -20 13 -135 -4 -149 -24 -19 -44 -3 -44 36 0 28 5 38
23 45 21 8 21 9 1 9 -26 1 -54 -28 -54 -56 0 -33 30 -51 85 -51 28 0 44 2 38
5 -9 3 -13 31 -13 89 0 79 -1 84 -21 84 -16 0 -19 -3 -11 -12z"/>
<path d="M4324 323 c-20 -37 -48 -78 -60 -90 l-23 -23 32 1 c18 0 26 3 20 6
-9 3 -10 10 -3 24 15 27 70 27 70 0 0 -11 -6 -22 -12 -24 -7 -3 5 -6 27 -6 25
0 35 2 27 8 -9 5 -16 38 -19 90 -3 44 -9 81 -14 81 -4 0 -24 -30 -45 -67z m36
-24 c0 -24 -4 -29 -25 -29 l-25 0 17 35 c19 39 33 37 33 -6z"/>
<path d="M4480 370 c-31 -31 -25 -59 15 -76 37 -15 46 -42 20 -64 -20 -17 -48
-9 -61 18 l-11 23 -7 -23 c-3 -13 -6 -25 -6 -28 0 -12 88 -4 103 9 10 7 17 27
17 43 0 24 -6 32 -35 44 -37 15 -44 34 -20 54 21 18 48 8 56 -20 6 -25 9 -23
22 20 7 25 -69 24 -93 0z"/>
<path d="M3806 358 c-22 -31 -20 -100 2 -128 28 -35 68 -21 82 28 23 87 -41
162 -84 100z m62 -53 c2 -66 -7 -91 -32 -82 -12 5 -16 21 -16 70 0 68 5 79 30
75 11 -2 16 -18 18 -63z"/>
<path d="M4060 333 l-75 -35 74 -34 c95 -44 107 -43 17 1 l-68 34 66 30 c36
16 66 32 66 35 0 7 8 11 -80 -31z"/>
<path d="M4860 360 c-9 -6 -10 -10 -3 -10 6 0 15 5 18 10 8 12 4 12 -15 0z"/>
<path d="M5005 360 c-17 -7 -17 -9 -2 -9 14 -1 17 -11 17 -65 0 -53 -3 -65
-17 -69 -10 -3 2 -5 27 -5 25 0 37 2 28 5 -15 4 -18 16 -18 79 0 76 -1 79 -35
64z"/>
<path d="M1892 323 c-2 -42 -2 -42 -44 -46 l-43 -4 42 -1 c42 -2 42 -2 46 -44
l4 -43 1 42 c2 42 2 42 45 46 l42 4 -42 1 c-42 2 -42 2 -46 45 l-4 42 -1 -42z"/>
<path d="M4775 323 l-50 -26 70 -33 c39 -18 75 -33 80 -33 6 0 -21 15 -60 33
l-70 33 50 26 c28 14 46 26 40 26 -5 0 -32 -12 -60 -26z"/>
<path d="M2807 314 c-8 -8 1 -24 14 -24 5 0 9 7 9 15 0 15 -12 20 -23 9z"/>
<path d="M3116 304 c-37 -37 -1 -103 49 -90 14 4 25 11 25 16 0 6 -8 5 -19 -2
-15 -9 -23 -9 -35 1 -28 23 -19 41 19 41 36 0 46 15 23 38 -17 17 -44 15 -62
-4z m52 -11 c2 -8 -6 -13 -22 -13 -19 0 -24 4 -19 15 6 18 34 16 41 -2z"/>
<path d="M3208 313 c7 -3 12 -23 12 -48 0 -25 -5 -45 -12 -48 -7 -3 2 -6 20
-6 29 -1 31 1 20 19 -15 24 0 73 25 78 14 3 17 -4 17 -41 0 -27 -5 -47 -12
-50 -7 -3 3 -6 22 -6 19 0 30 3 23 7 -6 4 -13 28 -15 52 l-3 45 -55 1 c-30 1
-49 0 -42 -3z"/>
<path d="M3361 307 c-5 -7 -9 -30 -8 -52 1 -22 -3 -47 -7 -54 -20 -32 68 -57
94 -26 17 21 6 43 -27 51 -64 14 -65 16 -10 28 21 5 27 12 27 32 0 14 4 23 10
19 6 -3 10 -2 10 3 0 14 -77 13 -89 -1z m49 -22 c0 -25 -23 -35 -35 -15 -10
16 2 40 20 40 9 0 15 -9 15 -25z m24 -84 c9 -14 -21 -33 -46 -29 -12 2 -24 11
-26 21 -3 13 4 17 32 17 19 0 37 -4 40 -9z"/>
<path d="M3483 313 c-18 -7 -16 -23 2 -23 8 0 15 5 15 10 0 14 28 12 33 -2 2
-8 -10 -18 -27 -24 -23 -8 -31 -17 -31 -35 0 -22 4 -24 50 -24 42 0 50 4 52
20 3 20 3 20 -6 0 -8 -16 -10 -12 -10 22 -1 52 -33 75 -78 56z m57 -56 c0 -17
-20 -37 -37 -37 -16 0 -17 22 -1 38 16 16 38 15 38 -1z"/>
<path d="M3599 307 c15 -15 14 -70 -1 -85 -9 -9 3 -12 58 -11 38 0 63 3 57 6
-7 2 -13 22 -13 43 0 47 -13 58 -69 58 -33 1 -41 -2 -32 -11z m76 -42 c0 -34
-3 -40 -22 -43 -21 -3 -23 1 -23 36 0 43 7 54 30 50 10 -2 15 -15 15 -43z"/>
<path d="M653 293 c26 -2 67 -2 90 0 23 2 2 3 -48 3 -49 0 -68 -1 -42 -3z"/>
<path d="M490 269 c0 -5 5 -7 10 -4 6 3 10 8 10 11 0 2 -4 4 -10 4 -5 0 -10
-5 -10 -11z"/>
<path d="M907 273 c18 -2 50 -2 70 0 21 2 7 4 -32 4 -38 0 -55 -2 -38 -4z"/>
<path d="M1700 269 c0 -5 5 -7 10 -4 6 3 10 8 10 11 0 2 -4 4 -10 4 -5 0 -10
-5 -10 -11z"/>
<path d="M2650 269 c0 -5 5 -7 10 -4 6 3 10 8 10 11 0 2 -4 4 -10 4 -5 0 -10
-5 -10 -11z"/>
<path d="M4600 269 c0 -5 5 -7 10 -4 6 3 10 8 10 11 0 2 -4 4 -10 4 -5 0 -10
-5 -10 -11z"/>
<path d="M465 239 c-4 -6 -4 -13 -1 -16 3 -4 6 -1 6 5 0 7 4 12 10 12 6 0 6
-9 0 -26 -14 -36 -13 -44 8 -43 9 0 12 3 5 5 -9 4 -9 13 -2 30 5 14 9 30 9 35
0 12 -27 11 -35 -2z"/>
<path d="M653 243 c26 -2 67 -2 90 0 23 2 2 3 -48 3 -49 0 -68 -1 -42 -3z"/>
<path d="M1675 239 c-4 -6 -4 -13 -1 -16 3 -4 6 -1 6 5 0 7 4 12 10 12 6 0 6
-9 0 -26 -14 -36 -13 -44 8 -43 9 0 12 3 5 5 -9 4 -9 13 -2 30 5 14 9 30 9 35
0 12 -27 11 -35 -2z"/>
<path d="M2627 244 c-4 -4 -7 -12 -7 -18 0 -6 5 -4 11 4 7 11 8 5 3 -22 -3
-21 -2 -38 3 -38 5 0 9 8 10 18 1 9 3 26 5 36 3 19 -13 32 -25 20z"/>
<path d="M4577 244 c-4 -4 -7 -12 -7 -18 0 -6 5 -4 11 4 7 11 8 5 3 -22 -3
-21 -2 -38 3 -38 5 0 9 8 10 18 1 9 3 26 5 36 3 19 -13 32 -25 20z"/>
<path d="M920 221 c-7 -13 -7 -22 0 -26 5 -3 10 3 10 15 0 29 24 20 28 -9 2
-15 -6 -34 -24 -52 l-28 -29 37 0 c27 0 37 4 37 16 0 14 -3 14 -15 4 -25 -21
-30 -2 -7 23 25 26 28 47 10 65 -18 18 -36 15 -48 -7z"/>
<path d="M2805 231 c-3 -5 0 -13 6 -16 6 -4 8 -19 5 -34 -5 -19 -4 -22 4 -11
12 19 13 70 1 70 -6 0 -12 -4 -16 -9z"/>
<path d="M4028 183 c23 -2 59 -2 80 0 20 2 1 4 -43 4 -44 0 -61 -2 -37 -4z"/>
<path d="M4768 183 c23 -2 59 -2 80 0 20 2 1 4 -43 4 -44 0 -61 -2 -37 -4z"/>
</g>
</svg>
