<svg width="25" height="24" viewBox="0 0 25 24" fill="none" xmlns="http://www.w3.org/2000/svg">
<g id="vuesax/bold/like-shapes">
<g id="like-shapes">
<path id="Vector" d="M22.2266 10.7401L20.8666 9.16006C20.6066 8.86006 20.3966 8.30006 20.3966 7.90006V6.20006C20.3966 5.14006 19.5266 4.27006 18.4666 4.27006H16.7666C16.3766 4.27006 15.8066 4.06006 15.5066 3.80006L13.9266 2.44006C13.2366 1.85006 12.1066 1.85006 11.4066 2.44006L9.83663 3.81006C9.53663 4.06006 8.96663 4.27006 8.57663 4.27006H6.84663C5.78663 4.27006 4.91663 5.14006 4.91663 6.20006V7.91006C4.91663 8.30006 4.70663 8.86006 4.45663 9.16006L3.10663 10.7501C2.52663 11.4401 2.52663 12.5601 3.10663 13.2501L4.45663 14.8401C4.70663 15.1401 4.91663 15.7001 4.91663 16.0901V17.8001C4.91663 18.8601 5.78663 19.7301 6.84663 19.7301H8.57663C8.96663 19.7301 9.53663 19.9401 9.83663 20.2001L11.4166 21.5601C12.1066 22.1501 13.2366 22.1501 13.9366 21.5601L15.5166 20.2001C15.8166 19.9401 16.3766 19.7301 16.7766 19.7301H18.4766C19.5366 19.7301 20.4066 18.8601 20.4066 17.8001V16.1001C20.4066 15.7101 20.6166 15.1401 20.8766 14.8401L22.2366 13.2601C22.8166 12.5701 22.8166 11.4301 22.2266 10.7401ZM17.3466 12.0001L16.1766 15.5601C16.0266 16.1501 15.3966 16.6301 14.7566 16.6301H12.9066C12.5866 16.6301 12.1366 16.5201 11.9366 16.3201L10.4666 15.1701C10.4366 15.8101 10.1466 16.0801 9.43663 16.0801H8.95663C8.21663 16.0801 7.91663 15.7901 7.91663 15.0901V10.3101C7.91663 9.61006 8.21663 9.32006 8.95663 9.32006H9.44663C10.1866 9.32006 10.4866 9.61006 10.4866 10.3101V10.6701L12.4266 7.79006C12.6266 7.48006 13.1366 7.26006 13.5666 7.43006C14.0366 7.59006 14.3366 8.11006 14.2366 8.57006L13.9966 10.1301C13.9766 10.2701 14.0066 10.4001 14.0966 10.5001C14.1766 10.5901 14.2966 10.6501 14.4266 10.6501H16.3766C16.7566 10.6501 17.0766 10.8001 17.2666 11.0701C17.4366 11.3301 17.4666 11.6601 17.3466 12.0001Z" fill="#025864"/>
</g>
</g>
</svg>
