<svg width="28" height="27" viewBox="0 0 28 27" fill="none" xmlns="http://www.w3.org/2000/svg">
<g id="Logo" clip-path="url(#clip0_972_30248)">
<path id="Vector" fill-rule="evenodd" clip-rule="evenodd" d="M14.0111 0.265793C21.3749 0.265793 27.3444 6.23533 27.3444 13.5991C27.3444 20.9629 21.3749 26.9325 14.0111 26.9325C6.64727 26.9325 0.677734 20.9629 0.677734 13.5991C0.677734 6.23533 6.64727 0.265793 14.0111 0.265793ZM13.5291 1.26352C12.0081 1.47759 10.5597 2.69985 9.43533 4.74406C9.1092 5.33701 8.81493 5.9921 8.55846 6.69942C10.0873 6.31524 11.7667 6.08874 13.5291 6.05371V1.26352ZM7.4316 7.01966C7.75046 6.01885 8.1406 5.09806 8.5908 4.27956C9.14813 3.26619 9.8096 2.39109 10.5549 1.71897C6.50226 2.89595 3.30788 6.09032 2.13092 10.1429C2.80303 9.39766 3.67813 8.73619 4.6915 8.17886C5.51 7.72866 6.43078 7.33853 7.4316 7.01966ZM7.11133 8.14653C6.72718 9.67533 6.50068 11.3547 6.46565 13.1172H1.67546C1.88953 11.5961 3.11179 10.1477 5.156 9.02339C5.74896 8.69726 6.40404 8.40299 7.11133 8.14653ZM7.42973 13.1172C7.46953 11.1938 7.7464 9.38806 8.20453 7.79259C9.8 7.33446 11.6058 7.05753 13.5291 7.01773V9.09966C12.8116 10.9366 11.3481 12.3999 9.51113 13.1172H7.42973ZM6.46565 14.0811H1.67546C1.88953 15.6022 3.11179 17.0505 5.156 18.1749C5.74896 18.501 6.40404 18.7953 7.11133 19.0517C6.72718 17.5229 6.50068 15.8435 6.46565 14.0811ZM8.20453 19.4057C7.7464 17.8102 7.46953 16.0045 7.42973 14.0811H9.51113C11.3481 14.7983 12.8117 16.2617 13.5291 18.0986V20.1805C11.6058 20.1407 9.8 19.8638 8.20453 19.4057ZM7.4316 20.1786C6.43078 19.8597 5.51 19.4696 4.6915 19.0194C3.67813 18.4621 2.80303 17.8006 2.13092 17.0553C3.30788 21.1079 6.50226 24.3023 10.5549 25.4793C9.8096 24.8071 9.14813 23.9321 8.5908 22.9187C8.1406 22.1002 7.75046 21.1794 7.4316 20.1786ZM13.5291 25.9347C12.0081 25.7207 10.5597 24.4984 9.43533 22.4542C9.1092 21.8613 8.81493 21.2061 8.55846 20.4989C10.0873 20.883 11.7667 21.1095 13.5291 21.1445V25.9347ZM17.4673 25.4793C18.2125 24.8071 18.874 23.9321 19.4314 22.9187C19.8815 22.1002 20.2717 21.1794 20.5905 20.1786C21.5913 19.8597 22.5121 19.4696 23.3307 19.0194C24.344 18.4621 25.2191 17.8006 25.8912 17.0553C24.7143 21.1079 21.5199 24.3023 17.4673 25.4793ZM19.4637 20.4989C19.2072 21.2061 18.9129 21.8613 18.5868 22.4542C17.4625 24.4984 16.0141 25.7207 14.493 25.9347V21.1445C16.2555 21.1095 17.9349 20.883 19.4637 20.4989ZM20.9108 19.0517C21.6181 18.7953 22.2732 18.501 22.8661 18.1749C24.9103 17.0505 26.1326 15.6022 26.3467 14.0811H21.5565C21.5215 15.8435 21.2949 17.5229 20.9108 19.0517ZM20.5925 14.0811C20.5527 16.0045 20.2757 17.8102 19.8176 19.4057C18.2221 19.8638 16.4164 20.1407 14.493 20.1805V18.1001C15.2103 16.2625 16.6741 14.7985 18.5116 14.0811H20.5925ZM21.5565 13.1172H26.3467C26.1326 11.5961 24.9103 10.1477 22.8661 9.02339C22.2732 8.69726 21.6181 8.40299 20.9108 8.14653C21.2949 9.67533 21.5215 11.3547 21.5565 13.1172ZM19.8176 7.79259C20.2757 9.38806 20.5527 11.1938 20.5925 13.1172H18.5116C16.6741 12.3997 15.2103 10.9357 14.493 9.09813V7.01773C16.4164 7.05753 18.2221 7.33446 19.8176 7.79259ZM20.5905 7.01966C21.5913 7.33853 22.5121 7.72866 23.3307 8.17886C24.344 8.73619 25.2191 9.39766 25.8912 10.1429C24.7143 6.09032 21.5199 2.89595 17.4673 1.71897C18.2125 2.39109 18.874 3.26619 19.4314 4.27956C19.8815 5.09806 20.2717 6.01885 20.5905 7.01966ZM14.493 1.26352C16.0141 1.47759 17.4625 2.69985 18.5868 4.74406C18.9129 5.33702 19.2072 5.9921 19.4637 6.69942C17.9349 6.31524 16.2555 6.08874 14.493 6.05371V1.26352Z" fill="#025864"/>
</g>
<defs>
<clipPath id="clip0_972_30248">
<rect width="28" height="26.6667" fill="white" transform="translate(0 0.166672)"/>
</clipPath>
</defs>
</svg>
