<svg width="20" height="20" viewBox="0 0 20 20" fill="none" xmlns="http://www.w3.org/2000/svg">
<path d="M4.29163 18.9584C3.94996 18.9584 3.66663 18.6751 3.66663 18.3334V1.66675C3.66663 1.32508 3.94996 1.04175 4.29163 1.04175C4.63329 1.04175 4.91663 1.32508 4.91663 1.66675V18.3334C4.91663 18.6751 4.63329 18.9584 4.29163 18.9584Z" fill="#025864"/>
<path d="M13.625 13.9583H4.29163C3.94996 13.9583 3.66663 13.6749 3.66663 13.3333C3.66663 12.9916 3.94996 12.7083 4.29163 12.7083H13.625C14.5333 12.7083 14.9583 12.4666 15.0416 12.2583C15.125 12.0499 15 11.5833 14.35 10.9416L13.35 9.94159C12.9416 9.58325 12.6916 9.04159 12.6666 8.44159C12.6416 7.80825 12.8916 7.18325 13.35 6.72492L14.35 5.72492C14.9666 5.10825 15.1583 4.60825 15.0666 4.39159C14.975 4.17492 14.5 3.95825 13.625 3.95825H4.29163C3.94163 3.95825 3.66663 3.67492 3.66663 3.33325C3.66663 2.99159 3.94996 2.70825 4.29163 2.70825H13.625C15.45 2.70825 16.0333 3.46659 16.225 3.91659C16.4083 4.36659 16.5333 5.31659 15.2333 6.61659L14.2333 7.61659C14.025 7.82492 13.9083 8.11659 13.9166 8.40825C13.925 8.65825 14.025 8.88325 14.2 9.04159L15.2333 10.0666C16.5083 11.3416 16.3833 12.2916 16.2 12.7499C16.0083 13.1916 15.4166 13.9583 13.625 13.9583Z" fill="#025864"/>
</svg>
