<svg width="20" height="20" viewBox="0 0 20 20" fill="none" xmlns="http://www.w3.org/2000/svg">
<g id="vuesax/bold/profile-2user">
<g id="profile-2user">
<path id="Vector" d="M7.50002 1.66675C5.31669 1.66675 3.54169 3.44175 3.54169 5.62508C3.54169 7.76675 5.21669 9.50008 7.40002 9.57508C7.46669 9.56675 7.53335 9.56675 7.58335 9.57508C7.60002 9.57508 7.60835 9.57508 7.62502 9.57508C7.63335 9.57508 7.63335 9.57508 7.64169 9.57508C9.77502 9.50008 11.45 7.76675 11.4584 5.62508C11.4584 3.44175 9.68335 1.66675 7.50002 1.66675Z" fill="#025864"/>
<path id="Vector_2" d="M11.7334 11.7917C9.40836 10.2417 5.6167 10.2417 3.27503 11.7917C2.2167 12.5 1.63336 13.4583 1.63336 14.4833C1.63336 15.5083 2.2167 16.4583 3.2667 17.1583C4.43336 17.9417 5.9667 18.3333 7.50003 18.3333C9.03336 18.3333 10.5667 17.9417 11.7334 17.1583C12.7834 16.45 13.3667 15.5 13.3667 14.4667C13.3584 13.4417 12.7834 12.4917 11.7334 11.7917Z" fill="#025864"/>
<path id="Vector_3" d="M16.6584 6.11659C16.7917 7.73325 15.6417 9.14992 14.05 9.34159C14.0417 9.34159 14.0417 9.34159 14.0334 9.34159H14.0084C13.9584 9.34159 13.9084 9.34159 13.8667 9.35825C13.0584 9.39992 12.3167 9.14159 11.7584 8.66659C12.6167 7.89992 13.1084 6.74992 13.0084 5.49992C12.95 4.82492 12.7167 4.20825 12.3667 3.68325C12.6834 3.52492 13.05 3.42492 13.425 3.39159C15.0584 3.24992 16.5167 4.46659 16.6584 6.11659Z" fill="#025864"/>
<path id="Vector_4" d="M18.325 13.8249C18.2583 14.6333 17.7417 15.3333 16.875 15.8083C16.0417 16.2666 14.9917 16.4833 13.95 16.4583C14.55 15.9166 14.9 15.2416 14.9667 14.5249C15.05 13.4916 14.5583 12.4999 13.575 11.7083C13.0167 11.2666 12.3667 10.9166 11.6583 10.6583C13.5 10.1249 15.8167 10.4833 17.2417 11.6333C18.0083 12.2499 18.4 13.0249 18.325 13.8249Z" fill="#025864"/>
</g>
</g>
</svg>
