<svg width="20" height="20" viewBox="0 0 20 20" fill="none" xmlns="http://www.w3.org/2000/svg">
<g id="vuesax/bold/briefcase">
<path id="Vector" d="M17.575 5.81676C16.8667 5.03343 15.6833 4.64176 13.9667 4.64176H13.7667V4.60843C13.7667 3.20843 13.7667 1.4751 10.6333 1.4751H9.36666C6.23332 1.4751 6.23332 3.21676 6.23332 4.60843V4.6501H6.03332C4.30832 4.6501 3.13332 5.04176 2.42499 5.8251C1.59999 6.74176 1.62499 7.9751 1.70832 8.81676L1.71666 8.8751L1.77745 9.51338C1.79171 9.66315 1.87246 9.79853 1.99846 9.88076C2.20051 10.0126 2.51025 10.2114 2.69999 10.3168C2.81666 10.3918 2.94166 10.4584 3.06666 10.5251C4.49166 11.3084 6.05832 11.8334 7.64999 12.0918C7.72499 12.8751 8.06666 13.7918 9.89166 13.7918C11.7167 13.7918 12.075 12.8834 12.1333 12.0751C13.8333 11.8001 15.475 11.2084 16.9583 10.3418C17.0083 10.3168 17.0417 10.2918 17.0833 10.2668C17.4035 10.0858 17.7354 9.8641 18.04 9.64542C18.1532 9.56415 18.2254 9.43801 18.2408 9.29951L18.25 9.21676L18.2917 8.8251C18.3 8.7751 18.3 8.73343 18.3083 8.6751C18.375 7.83343 18.3583 6.68343 17.575 5.81676ZM10.9083 11.5251C10.9083 12.4084 10.9083 12.5418 9.88332 12.5418C8.85832 12.5418 8.85832 12.3834 8.85832 11.5334V10.4834H10.9083V11.5251ZM7.42499 4.64176V4.60843C7.42499 3.19176 7.42499 2.66676 9.36666 2.66676H10.6333C12.575 2.66676 12.575 3.2001 12.575 4.60843V4.6501H7.42499V4.64176Z" fill="#025864"/>
<path id="Vector_2" d="M17.2597 11.509C17.6137 11.3417 18.0209 11.6223 17.9855 12.0123L17.7 15.1583C17.525 16.8249 16.8416 18.5249 13.175 18.5249H6.82495C3.15828 18.5249 2.47495 16.8249 2.29995 15.1666L2.02924 12.1888C1.9942 11.8033 2.39252 11.5233 2.74555 11.6819C3.70476 12.113 5.31676 12.8064 6.35274 13.0854C6.51675 13.1295 6.6499 13.2476 6.7243 13.4003C7.23851 14.4555 8.32769 15.0166 9.89162 15.0166C11.4401 15.0166 12.5426 14.4339 13.0588 13.3755C13.1333 13.2227 13.2664 13.1047 13.4304 13.0603C14.5322 12.7618 16.2536 11.9845 17.2597 11.509Z" fill="#025864"/>
</g>
</svg>
