<svg width="20" height="20" viewBox="0 0 20 20" fill="none" xmlns="http://www.w3.org/2000/svg">
<path d="M12.25 18.9584H7.75003C3.63336 18.9584 1.88336 17.2001 1.88336 13.0918V9.3501C1.88336 9.00843 2.1667 8.7251 2.50836 8.7251C2.85003 8.7251 3.13336 9.00843 3.13336 9.3501V13.0918C3.13336 16.5001 4.34169 17.7084 7.75003 17.7084H12.2417C15.65 17.7084 16.8584 16.5001 16.8584 13.0918V9.3501C16.8584 9.00843 17.1417 8.7251 17.4834 8.7251C17.825 8.7251 18.1084 9.00843 18.1084 9.3501V13.0918C18.1167 17.2001 16.3584 18.9584 12.25 18.9584Z" fill="#025864"/>
<path d="M9.99998 10.6251C9.08331 10.6251 8.24998 10.2667 7.65831 9.60841C7.06665 8.95008 6.79165 8.09175 6.88331 7.17508L7.44165 1.60841C7.47498 1.29175 7.74165 1.04175 8.06665 1.04175H11.9583C12.2833 1.04175 12.55 1.28341 12.5833 1.60841L13.1416 7.17508C13.2333 8.09175 12.9583 8.95008 12.3666 9.60841C11.75 10.2667 10.9166 10.6251 9.99998 10.6251ZM8.62498 2.29175L8.12498 7.30008C8.06665 7.85841 8.23331 8.38341 8.58331 8.76675C9.29165 9.55008 10.7083 9.55008 11.4166 8.76675C11.7666 8.37508 11.9333 7.85008 11.875 7.30008L11.375 2.29175H8.62498Z" fill="#025864"/>
<path d="M15.2583 10.6251C13.5666 10.6251 12.0583 9.25841 11.8833 7.57508L11.3 1.73341C11.2833 1.55841 11.3416 1.38341 11.4583 1.25008C11.575 1.11675 11.7416 1.04175 11.925 1.04175H14.4666C16.9166 1.04175 18.0583 2.06675 18.4 4.58341L18.6333 6.90008C18.7333 7.88341 18.4333 8.81675 17.7916 9.52508C17.15 10.2334 16.25 10.6251 15.2583 10.6251ZM12.6166 2.29175L13.1333 7.45008C13.2416 8.49175 14.2083 9.37508 15.2583 9.37508C15.8916 9.37508 16.4583 9.13342 16.8666 8.69175C17.2666 8.25008 17.45 7.65841 17.3916 7.02508L17.1583 4.73341C16.9 2.85008 16.2916 2.29175 14.4666 2.29175H12.6166Z" fill="#025864"/>
<path d="M4.70002 10.6251C3.70835 10.6251 2.80835 10.2334 2.16668 9.52508C1.52502 8.81675 1.22502 7.88341 1.32502 6.90008L1.55002 4.60841C1.90002 2.06675 3.04168 1.04175 5.49168 1.04175H8.03335C8.20835 1.04175 8.37502 1.11675 8.50002 1.25008C8.62502 1.38341 8.67502 1.55841 8.65835 1.73341L8.07502 7.57508C7.90002 9.25841 6.39168 10.6251 4.70002 10.6251ZM5.49168 2.29175C3.66668 2.29175 3.05835 2.84175 2.79168 4.75008L2.56668 7.02508C2.50002 7.65841 2.69168 8.25008 3.09168 8.69175C3.49168 9.13342 4.05835 9.37508 4.70002 9.37508C5.75002 9.37508 6.72502 8.49175 6.82502 7.45008L7.34168 2.29175H5.49168Z" fill="#025864"/>
<path d="M12.0834 18.9584H7.91669C7.57502 18.9584 7.29169 18.6751 7.29169 18.3334V16.2501C7.29169 14.5001 8.25002 13.5417 10 13.5417C11.75 13.5417 12.7084 14.5001 12.7084 16.2501V18.3334C12.7084 18.6751 12.425 18.9584 12.0834 18.9584ZM8.54169 17.7084H11.4584V16.2501C11.4584 15.2001 11.05 14.7917 10 14.7917C8.95002 14.7917 8.54169 15.2001 8.54169 16.2501V17.7084Z" fill="#025864"/>
</svg>
